<svg xmlns="http://www.w3.org/2000/svg" viewBox="0 0 500 285.57"><defs><style>.cls-1{fill:#F2E14C;}.cls-1,.cls-10,.cls-11,.cls-12,.cls-13,.cls-14,.cls-15,.cls-16,.cls-17,.cls-18,.cls-19,.cls-2,.cls-20,.cls-4,.cls-5,.cls-6,.cls-7,.cls-8,.cls-9{fill-rule:evenodd;}.cls-2{fill:#F2E14C;}.cls-3,.cls-4{fill:#fff;}.cls-5{fill:#c7bdbb;}.cls-6{fill:#b53232;}.cls-7{fill:#959696;}.cls-8{fill:#b43232;}.cls-9{fill:#fafcff;}.cls-10{fill:#b53734;}.cls-11{fill:#f4f3f3;}.cls-12{fill:#d1d2d1;}.cls-13{fill:#c2c5c8;}.cls-14{fill:#898a8a;}.cls-15{fill:#919192;}.cls-16{fill:#838585;}.cls-17{fill:#838383;}.cls-18{fill:#482c13;}.cls-19{fill:#251511;}.cls-20{fill:#F2E14C;}</style></defs><title>Ресурс 1</title><g id="Слой_2" data-name="Слой 2"><g id="Слой_1-2" data-name="Слой 1"><path class="cls-1" d="M0,207.68s255-54.42,500,0V224.3C443.75,199.38,341.79,183,287.81,194.49c-68.64,14.67-105.65,10.26-178.57,7.37C56.57,199.77,17.6,209,0,214.25Z"/><path class="cls-2" d="M331.51,282.2q7.42.9,14.86,1.72c6.25.7,12.29,1.12,18.53,1.57a71.35,71.35,0,0,0,7.17-.06,22.92,22.92,0,0,0,4.52-.82,15.85,15.85,0,0,0,3.69-1.62,12.43,12.43,0,0,0,4.69-4.92,13,13,0,0,0,1.49-6.09,13.15,13.15,0,0,0-1.84-6.62,19.3,19.3,0,0,0-2.89-3.64c2.66-5.38-1-12.15-11.53-15.73l1-.07a9.1,9.1,0,0,0,4.32.53A126.55,126.55,0,0,0,389,245.1c.88-.17,26,8.18,36.48,7.59a57.43,57.43,0,0,0,6.22-.77,18.73,18.73,0,0,0,3.82-1,14.61,14.61,0,0,0,3-1.54,8.88,8.88,0,0,0,3.38-4,7.89,7.89,0,0,0,.44-4.52,9,9,0,0,0-2.54-4.57,16.13,16.13,0,0,0-3-2.32c1.65-4.43-3.22-9.26-14.4-10.4-3.52-.19-20-11.38-35.83-12a9.17,9.17,0,0,0-2-2.76,16.12,16.12,0,0,0-3-2.16c1.66-4.12-3.22-8.61-14.4-9.67-10.29-.52-102.53-6.4-105.67,2.79a28.52,28.52,0,0,0-5.2,1.46,11.94,11.94,0,0,0-5.71,4.36,6.4,6.4,0,0,0-1,3.78,6.82,6.82,0,0,0,1.12,3.34,12.15,12.15,0,0,0,1.51,1.85,14,14,0,0,0-4.16,2.18,7.71,7.71,0,0,0-2.19,2.6,5.2,5.2,0,0,0-.42,3.58,6.56,6.56,0,0,0,1.64,2.92,10.62,10.62,0,0,0,2.14,1.74,18.81,18.81,0,0,0,3.73,1.75l.9.27c-2.81.62-4.67,1.62-5.31,3.07a26.72,26.72,0,0,0-6.2,1.32,15.05,15.05,0,0,0-7.46,5.47,11.85,11.85,0,0,0-2.08,5.36,12.19,12.19,0,0,0,.47,5.08,16.77,16.77,0,0,0,1.26,2.93,15.79,15.79,0,0,0-5.21,2.54,11.61,11.61,0,0,0-3.07,3.46,9.92,9.92,0,0,0-1.33,5.16,10.61,10.61,0,0,0,1.15,4.55,13.24,13.24,0,0,0,2,2.88,19,19,0,0,0,3.79,3.15c4.51,2.64,8.4,3.31,13.57,4.11.09,0,.93.12,1.09.14,5,.66,10,1,15.05,1.46,12.72,1,25.49,1.14,38.21,1.71l7.26.33c1.11,1,3.29,1.32,4.75,1.42a118.65,118.65,0,0,0,15.42.29,14,14,0,0,0,2.74-.74,7.1,7.1,0,0,0,1.76-1Zm-29.72-53.53a8.84,8.84,0,0,0,.68,1.44,12.33,12.33,0,0,0,1.52,2c-.49.19-.93.37-1.34.56-6.57-1-13-1.93-19.11-2.62C289.64,229.68,295.72,229.18,301.79,228.67Z"/><path class="cls-3" d="M415.83,89.33c-2.11-.16-1.86,1.58-2.19,2.79-1.09,4-1.89,8.17-3.63,12-.79,1.74-1.95,3.32-1.37,5.42.2.71-.34,1.29-.85,1.81a23.73,23.73,0,0,1-4.85,4c-2.94,1.73-6.05,3.14-8.88,5.06s-2.94,2.05-.6,4.63c2.84,3.14,2.62,6.09-.67,8.78a12.34,12.34,0,0,1-4.62,2.38,29.85,29.85,0,0,1-13.49.34c-7.53-1.42-15-3-22.7-3.62-6.5-.55-12.18-3.68-16.8-8.38-2.05-2.08-1.57-3.81,1.06-4.71,1.41-.48,3.45-.92,3.15-2.55s-2.41-1.63-4-1.65a1,1,0,0,0-.49.18.47.47,0,0,0-.1.7h0c.22.3.56.26.87.3-.32,0-.64,0-.87.27h0c-.43.46-1.15,0-1.58.51h0a.85.85,0,0,1-.32.2,2.65,2.65,0,0,1-2.37,2.86c-3.91.37-7.66,2.56-11.47,3.48-1.55.37-3.12.62-4.67,1,1,4.45-2.73,11.19-3.43,14.7a2.08,2.08,0,0,1-1.63,1.74,1.52,1.52,0,0,1-.21.85.41.41,0,0,1,0,.39,1.79,1.79,0,0,0-.39,1.47,3.91,3.91,0,0,0,.26.75q.17.38.36.72a4.5,4.5,0,0,1,.35,3.3c-2,8.15-2.33,16.52-3.36,24.8-.5,4-1.16,7.89-3.41,11.39a20.71,20.71,0,0,0-2.5,5.16,11.7,11.7,0,0,1,0,2.71,2.3,2.3,0,0,1,2.41,2.39,26.26,26.26,0,0,1-3,12.52,3.83,3.83,0,0,0,.85.51c1.47-3.71,1.81-7.7,2.68-11.69a15.67,15.67,0,0,1,2.82,8.33c0,.78.19,1.44.92,1.72,2.36.89,4.12,2.87,6.67,3.52,2.09.55,4.08,1.57,6.15,2.24,6.22,2,9.27,6.3,10.09,12.66,1.83,14.29,2.71,28.67,4.08,43,.25,2.64,1.08,5.37-.49,7.92-.05.53.34.73.71.94h0a5.33,5.33,0,0,0,.52.54,3.26,3.26,0,0,0,.52.53h.52a1.56,1.56,0,0,0,.49-.56h0a1.78,1.78,0,0,0,.54-.52h0a3.64,3.64,0,0,0,.54-.5h0a4.78,4.78,0,0,1,.54-.47l0,0c.22-.35.72-.24.95-.58l0,0,0,0a2.38,2.38,0,0,0,.57-.48h0a16,16,0,0,0,3.66-3.69h0a1.09,1.09,0,0,0,.11-1.21c-2.81-2.07-3.4-5-3.62-8.29-.32-4.52-1-9-1.3-13.55-.26-3.91-1.72-8,.59-11.77a1.44,1.44,0,0,0-.27-1.71c-2.84-3.3-2.29-7.41-2.58-11.25-.26-3.37.71-4,4.19-4,7.35-.13,14.63,1.08,22,1,4.63,0,8.83.84,12.51,3.75a3,3,0,0,0,4.27-.2,15.83,15.83,0,0,0,4.41-6.43,148,148,0,0,0,7.24-24.88c1.39-7.2,1.88-14.57,3.93-21.65a3.29,3.29,0,0,0-1.13-3.51,14.54,14.54,0,0,1-3.26-4.69c-3.27-7.51.94-15.89,7.19-20.38a3.7,3.7,0,0,1,3.27-.4c1.51.41,2.48,1.56,3.6,2.54s2,2.74,3.92,2.78c.06-.19.12-.39.19-.58a1.35,1.35,0,0,1,.42-.47l0,0a2.63,2.63,0,0,1,.5-.5l0,0a3,3,0,0,1,.5-.5l0,0a3.38,3.38,0,0,1,.5-.5l0,0,.47-.54c.7-1.18-.13-2.56.52-3.75l.06-1.5c.61-1.56-.18-3.25.46-4.8l.06-1a6.73,6.73,0,0,0,0-3.67l0,0c-.39-.33-.29-.67-.05-1h0a2.31,2.31,0,0,0,.53-.55l0,0,0,0h0a.35.35,0,0,0,.11-.14c.05-.11,0-.22-.12-.34l0,0c-.16-.18-.31-.37-.46-.56l0,0a1.72,1.72,0,0,1-.48-.49l0,0a1.72,1.72,0,0,1-.49-.48l0,0a1.72,1.72,0,0,1-.48-.49l0,0a1.55,1.55,0,0,1-.24-.19c-3.64-.05-7.26-.39-10.89-.42a2.43,2.43,0,0,1-2.35-3l-.18-.07c-.43-.32-.35-.67,0-1v0c.3-.27.79-.19,1.05-.55h0l0,0a0,0,0,0,0,0,0c.32-.24.81-.15,1.06-.55l0,0a5.26,5.26,0,0,0,.58-.45.39.39,0,0,1,.36-.1c.39-.19.88-.13,1.19-.52h0l0,0a0,0,0,0,0,0,0c.32-.22.79-.16,1.05-.51h0l0,0s0,0,0,0c.32-.25.79-.18,1.06-.52h0c.31-.26.78-.18,1.07-.5h0c.43-.47,1.16,0,1.57-.53h0a7.53,7.53,0,0,0,5.24-4.79.6.6,0,0,1,.06-.45c.5-.64-.06-1.52.48-2.15a.58.58,0,0,1,.06-.48c.4-.45,0-1.14.47-1.58v0c.59-.6,0-1.51.54-2.11h0c.45-.49.11-1.2.48-1.71a.45.45,0,0,1,.06-.39c.44-.47.06-1.18.49-1.65a.57.57,0,0,1,.07-.46c.4-.46,0-1.15.47-1.58h0c.58-.62,0-1.53.52-2.16a.59.59,0,0,1,.07-.47c.38-.49.05-1.18.44-1.67a.48.48,0,0,1,.05-.42c.52-.65,0-1.54.48-2.2a.5.5,0,0,1,0-.43A4.5,4.5,0,0,0,415.83,89.33Z"/><path class="cls-3" d="M447.14,229.36a.41.41,0,0,1-.05-.4c-.39-.5,0-1.22-.51-1.69v0c-.29-.3-.2-.76-.47-1.07a.31.31,0,0,1-.09-.34,1.73,1.73,0,0,0-.44-.72v0c-.37-.23-.24-.76-.59-1l0,0a4.46,4.46,0,0,0-.49-.57v0c-.32-.24-.22-.74-.57-1h0l0,0,0,0a1.34,1.34,0,0,0-.53-.55l0,0,0,0h0a1.58,1.58,0,0,0-.51-.52h0l0,0h0a1.78,1.78,0,0,0-.52-.54h0l0,0h0a3,3,0,0,0-.52-.54h0a3.65,3.65,0,0,0-.52-.52h0a3.79,3.79,0,0,0-.53-.53h0a5.39,5.39,0,0,0-.53-.54v0a3.94,3.94,0,0,0-.54-.54h0a3,3,0,0,0-.54-.52h0l0,0h0a1.69,1.69,0,0,0-.53-.5h0l0,0,0,0a1.07,1.07,0,0,0-.69-.52.38.38,0,0,1-.35-.12,3.34,3.34,0,0,0-.61-.43.58.58,0,0,1-.44-.13c-.2-.14-.41-.27-.61-.39a.59.59,0,0,1-.43-.09c-.34-.25-.79-.2-1.14-.43l-1-.11c-1-.42-2.16,0-3.16-.47-.52.46-1.06.89-1.54,1.39a3.48,3.48,0,0,0-1.26,1.72c1.26-.47,2.31-.85,3.35-1.25a2.7,2.7,0,0,1,1.53-.19,1.1,1.1,0,0,1,.83.58.71.71,0,0,1-.3.89,82.08,82.08,0,0,0-6.28,5.52,13.59,13.59,0,0,0-2.79,4.39,6.24,6.24,0,0,0,1.62,6.92,12.18,12.18,0,0,0,10.71,2.83,3,3,0,0,1,2,.05,2,2,0,0,0,2-.21,5.15,5.15,0,0,0,1.8-1.5,4,4,0,0,1,3-1.34c.46,0,.49.38.58.7.22.14.37.08.47-.16a.52.52,0,0,1,.11-.4c.24-.31.15-.76.45-1h0c.47-.43,0-1.16.52-1.58h0A3,3,0,0,0,447.14,229.36Z"/><path class="cls-3" d="M422.42,54.63a1.2,1.2,0,0,0-.53-.54h0l0,0s0,0,0,0a2.1,2.1,0,0,0-.49-.58h0a4.06,4.06,0,0,1-.46-.55l-.05,0a1.83,1.83,0,0,1-.48-.48l0-.05a1.83,1.83,0,0,1-.48-.48l0,0a1.74,1.74,0,0,1-.37-.34,10.58,10.58,0,0,1-1.21-.21c-5.88-1.48-12.36-1.31-18.39-2.3a151.57,151.57,0,0,1-18.28-3.77c-6.05-1.76-11.7-2.29-17.91-3-2.53-.3-5.34-1.47-7.85-1.54a22.84,22.84,0,0,1-4.66-.58,8,8,0,0,1-1.72.68c-3.11.87-5.82,2.62-8.84,3.71-2.69,1-5.43,1.78-8.13,2.71-4.45,1.52-8.55,3.83-13,5.37.83,3.49.45,7.13-.16,10.78-.81,4.85-1.64,9.7-2.43,14.56-1.81,11.06-1.8,22.56-4.66,33.43a2.79,2.79,0,0,1,.46.45l0,0a4.32,4.32,0,0,0,.57.47l0,0c.46.54,1.2.16,1.7.53l.2,0,.18.08c.49.46,1.2.11,1.71.48l.2,0,.19.08c.79.61,1.85-.1,2.64.5h0c1.18.71,2.58-.11,3.78.5l.2,0,.2.07a2.62,2.62,0,0,0,2.07.16c.06-1.65-1.4-1.55-2.33-1.9-3.18-1.18-6.48-2.07-9.49-3.73.17-.24.31-.29.51-.26,13.13,2.56,26.32,4.73,39.62,6.24,9.13,1,18.11,3.09,27.18,4.48,1.32.2,2.62.44,3.83-.33,4.19-2.69,8.59-5.09,12.14-8.68,9.83-9.94,15.61-22,18.48-35.55,1-4.89,1.62-9.87,2.72-15.11.93,1.93.26,3.73,1.13,5.24a.43.43,0,0,0,.7,0,.59.59,0,0,1,.06-.45c.49-.66,0-1.53.46-2.19a.5.5,0,0,1,.05-.43c.59-.81-.1-1.86.5-2.68a.62.62,0,0,1,.05-.48c.49-.64-.05-1.51.46-2.15a.64.64,0,0,1,.07-.47c.25-.53.41-1.06-.13-1.53Z"/><path class="cls-3" d="M280.26,193.23a4.86,4.86,0,0,1-1.12-2.31,18.92,18.92,0,0,1,.18-4.2c-3.32,1.33-6.92,1.95-10.08,3.73s-2.06,6.33-6.19,7.67c-3,.95-6.31-1.8-8.7-3.08-4.27-2.28-8.13-2.11-12.21-.55a1,1,0,0,1,0,.25c0,.68.48.83,1,1,3.73,1.2,7.45,2.44,11.2,3.59a2.06,2.06,0,0,1,1.74,2,2.66,2.66,0,0,0,.55,1.45c1.2,1.35,1.29,3.1,1.39,4.67.17,2.6.86,5.17.66,7.8a1.85,1.85,0,0,0,.05.78,17.42,17.42,0,0,1,.46,5.19,5.76,5.76,0,0,0,.07,1.56,19.65,19.65,0,0,1,.4,5.72c0,2.62,0,5.24,0,7.86a11.61,11.61,0,0,0,.19,2.34,37.56,37.56,0,0,1,.86,6.17c.15,4.17-.33,8.37.48,12.53a2,2,0,0,1-1.82,2.43,8.1,8.1,0,0,1-1.31.06q-.08,0-.09.21c0,.13.08.2.29.22a.47.47,0,0,1,.38.1.83.83,0,0,0,1,.05l.56,0,.54.46h0a2.81,2.81,0,0,0,.55.54l0,0a1.77,1.77,0,0,0,.56.53l0,0c.32.39.65.38,1,0l0,0a4.26,4.26,0,0,0,.57-.48h0c.25-.34.77-.22,1-.58l0,0a5.18,5.18,0,0,0,.58-.47l0,0c.24-.34.76-.22,1-.59l0,0a3.29,3.29,0,0,0,.57-.49h0c.25-.31.75-.21,1-.56h0l0,0s0,0,0,0a1.58,1.58,0,0,0,.55-.51h0l0,0v0c.21-.13.36-.33.56-.47l0,0a25,25,0,0,0,3.66-3.61l.06-.06a.43.43,0,0,0,0-.46c-1.26-.12-1.85-1.19-2.69-1.92a3.47,3.47,0,0,1-1.13-2.25c-.41-2.73-1-5.44-1.43-8.17-.28-1.7-.45-3.43-.6-5.15a18.07,18.07,0,0,0-.34-2.83,12.57,12.57,0,0,1-.16-4.15c.14-1.75,1.27-3,2.52-4.05.81-6-.59-11.9-.47-17.91.73.19,1.25,1.07,2.14.62a9,9,0,0,0,0-1c-.22-1.42.47-2.24,1.62-3a52.44,52.44,0,0,1,5.56-2.9,7.93,7.93,0,0,0,4.19-4.75,1.42,1.42,0,0,0-.18-1.47A12,12,0,0,1,280.26,193.23Z"/><path class="cls-4" d="M410.9,144.3h0Z"/><polygon class="cls-4" points="338.94 275.52 338.94 275.52 338.94 275.52 338.94 275.52"/><path class="cls-5" d="M343.28,270.38c-2.09-.76-3.54-2-3.81-4.41-.4-3.55-.91-7.08-1-10.65-.83-2.35-.25-4.86-.89-7.25-.31-1.15.14-2.54-.25-3.64-.61-1.71.27-3.45-.38-5.11-.19-.5.17-1,.46-1.46.44-.65.93-1.26,1.46-2a4.87,4.87,0,0,0-.84-1,4.94,4.94,0,0,1-2-4.08c-.11-2.62-.81-5.18-.66-7.81a7.28,7.28,0,0,1,.35-2.31,2.79,2.79,0,0,1,2.92-2c2.7.33,5.41.06,8.11.18a9.08,9.08,0,0,1,3.11.34,2.06,2.06,0,0,0,.78.12c4.37-.25,8.68.91,13.06.56a17,17,0,0,1,9.28,2.27,10.91,10.91,0,0,1,2.33,1.67c1.26,1.13,1.86,1.08,3.16,0a15,15,0,0,0,4.11-5.68,121.07,121.07,0,0,0,4.29-12.63c1-3.34,1.9-6.7,2.61-10.12.59-2.8,1-5.64,1.53-8.46.84-4.88,1.27-9.84,2.6-14.63.07-.26,0-.57.16-.77,1-1.52.28-2.48-.88-3.5-3.53-3.14-4.63-7.28-4.43-11.81a14.8,14.8,0,0,1,.95-4.06,16.2,16.2,0,0,1,4.45-7.29c.8-.68,1.48-1.49,2.24-2.21a5.09,5.09,0,0,1,7.09-.06c1.35,1.23,2.6,2.58,3.91,3.87.37.37.77.7,1.16,1.05l.18-.05a.88.88,0,0,0,.44.47l.06.06a1.44,1.44,0,0,0,.45.5l0,0c.14.2.33.36.47.56v0a1.39,1.39,0,0,1,.5.6l-.05,0c.43.2.29.75.64,1v0c.15.2.39.36.44.63l-.05-.06c.45.23.35.74.57,1.09l0-.05c.45.29.38.81.55,1.23a.24.24,0,0,0,.12.32c.26.3.16.77.48,1h0c.29.31.23.77.47,1.11l0,0c.56.44.19,1.15.5,1.66l0,0c.48.18.36.73.63,1v0c.37.33.33.82.5,1.23a.25.25,0,0,0,.11.34c.27.31.2.77.45,1.09l0,0c.38.32.34.82.51,1.23a.24.24,0,0,0,.11.33c.27.31.19.77.46,1.08v0c.35.32.3.81.5,1.19a.31.31,0,0,0,.11.38c.25.32.18.77.45,1.08l0,0c.54.39.06,1.16.58,1.55h0c.29.35.26.82.46,1.2a.32.32,0,0,0,.12.39c.24.32.16.77.44,1.07v0c.33.35.32.84.47,1.26a.21.21,0,0,0,.09.31,4.29,4.29,0,0,1,.44,1.26.22.22,0,0,0,.1.32c.39.49.11,1.15.4,1.67l0-.05c.49.23.39.78.6,1.15a.31.31,0,0,0,.11.38c.25.35.22.81.42,1.18a.33.33,0,0,0,.12.4c.24.31.16.76.44,1.06v0c.33.35.31.83.48,1.24a.25.25,0,0,0,.1.34c.27.31.19.77.46,1.08l0,0c.37.34.34.83.5,1.25a.23.23,0,0,0,.1.32c.29.3.2.77.48,1.08l0,0c.36.34.33.83.5,1.24a.24.24,0,0,0,.1.33c.27.32.2.78.45,1.1l0,0c.64.61.06,1.51.51,2.17l0,0a.86.86,0,0,1,.56.74.18.18,0,0,0,.1.27c.28.31.2.78.46,1.09v0c.53.41.09,1.16.55,1.6l0,0c.35.35.33.83.5,1.25a.21.21,0,0,0,.07.32c.31.34.26.82.47,1.2a.3.3,0,0,0,.1.38c.25.32.19.77.44,1.09l0,0c.54.41.11,1.15.55,1.6l0,0c.37.34.35.84.5,1.26a.2.2,0,0,0,.08.3,3.86,3.86,0,0,1,.45,1.27.2.2,0,0,0,.08.31c.54.61-.06,1.5.5,2.11h0c.32.29.23.77.53,1.06h0c.48.43.08,1.16.52,1.6v0c.5.47.13,1.2.51,1.7,0,.76,0,1.51,0,2.26-.16.43-.13.93-.51,1.26l0,0c-.27.31-.16.84-.61,1l.06-.06a1.31,1.31,0,0,1-.49.62h0a6.12,6.12,0,0,0-.45.56l0,0c-.21.31-.29.69-.52,1a4.33,4.33,0,0,1-1.24,1.15c1.56-.22,3.41-1.49,4.29.33s-1.32,2.53-2.37,3.48c-2.26,2.05-4.71,3.9-6.09,6.73-1.64,3.39-.91,6.09,2.18,8.16a12.65,12.65,0,0,0,8.22,2c2.67-.18,5.31-.19,7.4-2.43.58-.62,2.31-1.77,3.05.4a1.24,1.24,0,0,1-.22.7l0,.53a.67.67,0,0,1,0,1v0c-.29.29-.15.85-.64,1l.07-.07c-.15.49-.72.35-1,.65h0a1,1,0,0,1-.64.46l.05-.06c-.17.49-.71.37-1,.62l0,0a1.31,1.31,0,0,1-.68.42,6.27,6.27,0,0,0-2.27,1.26c-6.34,5.54-18.2,2.45-22-5.37-1.91-3.93-.62-7.87.83-11.69.4-1.06,1.44-2.21-.1-3.24a3.9,3.9,0,0,1-.86-.81l0,0a1.54,1.54,0,0,1-.58-.52h0a2.47,2.47,0,0,1-.54-.53h0a2.26,2.26,0,0,1-.53-.54v0a2.51,2.51,0,0,1-.54-.54h0a2.76,2.76,0,0,1-.54-.54l0,0a2.76,2.76,0,0,1-.54-.54h0a2.76,2.76,0,0,1-.54-.54l0,0a1.48,1.48,0,0,1-.51-.6l.05.06c-.44-.31-.39-.83-.55-1.26a.2.2,0,0,0-.11-.29c-.27-.3-.17-.77-.48-1.06h0c-.32-.3-.26-.77-.5-1.1l0,0c-.39-.32-.36-.83-.52-1.26v-.09c.07-.26.2-.52,0-.76v0a1.32,1.32,0,0,1-.51-.61l.06.06c-.46-.27-.38-.8-.57-1.19a.29.29,0,0,0-.12-.36c-.25-.32-.19-.76-.44-1.09l0,0c-.38-.33-.35-.84-.51-1.26a.19.19,0,0,0-.07-.3c-.32-.32-.24-.81-.48-1.16a.39.39,0,0,0-.11-.43c-.24-.31-.16-.76-.44-1.06v0c-.33-.34-.29-.82-.49-1.21a.28.28,0,0,0-.12-.37c-.23-.32-.16-.77-.44-1.07v0c-.34-.32-.3-.81-.5-1.2a.31.31,0,0,0-.11-.38c-.25-.3-.15-.76-.47-1h0c-.3-.3-.24-.77-.49-1.1l0,0c-.14-.1-.19-.21-.15-.32s.08-.17.12-.17v0c.12-.13.15-.24.1-.34s-.1-.15-.15-.15l0-.06a2.29,2.29,0,0,0-.46-.52l0,0c-.15-.2-.38-.35-.45-.61l.05.05c-.43-.24-.34-.74-.57-1.09l0,0c-.42-.24-.34-.74-.56-1.09l0,0c-1.05-.28-.82.53-.87,1-.13,1.25.23,2.53-.21,3.76a2.11,2.11,0,0,0-.11,1.38c-.46.89.06,1.93-.43,2.82l-.09.91c-.51.86.1,1.92-.46,2.77a.32.32,0,0,0-.05.41c-.48.68,0,1.54-.45,2.21a.4.4,0,0,0-.07.45c-.56.83.07,1.86-.46,2.7,0,.3-.05.6-.08.91-.55,1,.12,2.26-.46,3.3a.36.36,0,0,0-.05.43c-.58,1,.09,2.21-.45,3.23,0,.33-.05.65-.07,1-.63,1.2.15,2.57-.49,3.76a.35.35,0,0,0-.05.42c-.52.64.15,1.6-.59,2.18l.05-.07a.92.92,0,0,1-.56.58l.05,0a1,1,0,0,1-.57.57l0-.05a1,1,0,0,1-.57.57l.05,0a1,1,0,0,1-.57.56l0,0a1,1,0,0,1-.57.57l.05,0a1.09,1.09,0,0,1-.57.57l0,0a.81.81,0,0,1-.6.53l.05-.06c-.18.49-.71.37-1,.61l0,0c-.25.41-.75.32-1.08.55l0,0c-.23.4-.75.29-1.05.57h0c-.24.34-.75.22-1,.56h0c-.2.16-.35.4-.63.43l0-.05c-.19.47-.72.36-1.05.6l0,0c-.22.4-.74.29-1,.58h0c-.25.33-.75.21-1,.55l0,0c-.21.15-.35.39-.63.43l.05,0c-.2.46-.73.34-1,.61l0,0c-.24.37-.75.26-1,.57h0a8,8,0,0,1-1.64,1l0,0c-.22.42-.74.31-1,.59h0a1,1,0,0,1-.63.48l.05-.06c-.18.49-.71.37-1,.61l0,0c-.24.4-.75.3-1.05.57h0c-2.39.8-4.91-.19-7.29.58l0,0c-.36.24-.23.75-.56,1v0c-.3.29-.18.82-.6,1l.05-.05c-.09.26-.31.41-.45.62v0c-.36.24-.24.75-.57,1v0c-.3.29-.17.84-.64,1l.05-.06a1.07,1.07,0,0,1-.47.63h0c-.31.27-.17.83-.65,1l.06-.06a.91.91,0,0,1-.51.62l0,0a3.42,3.42,0,0,1-.49.58v0c-.45.45-.61,1.13-1.16,1.51l.06-.05a1.14,1.14,0,0,1-.54.6l0,0a1.64,1.64,0,0,1-.52.56h0a2.51,2.51,0,0,1-.54.54l0,0a2.31,2.31,0,0,1-.54.54h0a2.51,2.51,0,0,1-.54.54l0,0a2.31,2.31,0,0,1-.54.54h0a2.47,2.47,0,0,1-.53.54v0a1.89,1.89,0,0,1-.56.53l0,0a2,2,0,0,1-.52.56h0a47.24,47.24,0,0,1-6.23,6.34l0,0a2,2,0,0,0-.48.49l0,0a2,2,0,0,0-.49.48l0,0a3.87,3.87,0,0,0-.52.47h0a6.51,6.51,0,0,1-.54.51v0a2.31,2.31,0,0,1-.54.54h0a2,2,0,0,1-.55.53l0,0a1.32,1.32,0,0,1-.58.52l0,0a1.09,1.09,0,0,1-.57.57l0,0a1.41,1.41,0,0,1-.52.59l0,0a2.51,2.51,0,0,1-.53.55v0a2.31,2.31,0,0,1-.54.54h0a5.17,5.17,0,0,1-.5.55v0a2.86,2.86,0,0,0-.46.52l0,0c-.49.42-.64,1.09-1.15,1.49l0,0a1.52,1.52,0,0,1-.52.58l0,0a2.56,2.56,0,0,1-.54.55v0a2.47,2.47,0,0,1-.53.54h0a2.76,2.76,0,0,1-.54.54v0a2.47,2.47,0,0,1-.53.54h0C343.6,270.51,343.47,270.55,343.28,270.38Z"/><path class="cls-5" d="M300.58,208.46a30.88,30.88,0,0,1,.87-5.65c.42-2.09,1.26-4.17.92-6.41-.07-.43.36-.93.66-1.64,1,1.37,2.08,2.4,2.31,3.92a5.37,5.37,0,0,0,1,2.4c1,1.39,1.4,2.79.34,4.34-.08.11,0,.33,0,.59.64.23,1.27.51,1.93.7.94.28,1.83.55,2.2,1.63.16.47.68.44,1.09.58a112.32,112.32,0,0,1,11.7,4.55,20.36,20.36,0,0,1,4.17,3.12,4,4,0,0,1,1.3,2.22c.21,1,.61,2,.91,3a41.43,41.43,0,0,1,1.22,6.92c.33,2.67.4,5.36.86,8,.4,2.31.48,4.68.67,7a9.06,9.06,0,0,0,.32,2.59,1.67,1.67,0,0,1,.15.76c-.18,3,.53,5.91.55,8.87a70.31,70.31,0,0,0,1,9.6,15.91,15.91,0,0,1,.1,1.83,18.34,18.34,0,0,0,.39,3.89,4.81,4.81,0,0,1-1.45,5.22,1,1,0,0,1-1.53,0l0,0c-.33-.24-.79-.16-1.1-.46L331,276l-.17,0c-.43-.15-.91-.14-1.26-.48h0c-.42-.45-1.17,0-1.57-.55l0,0c-.32-.27-.81-.18-1.07-.54l0,0c-.23-1.51-1.1-1.95-2.61-1.87s-2.87.37-4.25-.26h0c-.45-.42-1.16,0-1.61-.48l-.15-.11-.18,0c-.54-.33-1.26,0-1.75-.5h0c-.61-.54-1.52.08-2.11-.53h0c-.62-.54-1.52.07-2.13-.52l-.14-.11-.16.06c-.73-.4-1.63.07-2.33-.47l-.14-.11-.16.06a1.47,1.47,0,0,1-.74-.43l0,0a2.53,2.53,0,0,0-.5-.48l0,0a1.83,1.83,0,0,0-.48-.48l0,0a1.9,1.9,0,0,0-.49-.49l0,0a1.83,1.83,0,0,0-.48-.48l0,0a2.53,2.53,0,0,0-.48-.5l0,0c-.6-1.39.17-2.92-.46-4.3l-.06-1c-.63-1.56.18-3.26-.47-4.81,0-.32,0-.64,0-1-.66-1.56.17-3.26-.48-4.82a2.45,2.45,0,0,0-.08-1.49c-.55-1.43.13-3-.42-4.39a2.32,2.32,0,0,0-.08-1.38c-.63-1.56.18-3.25-.47-4.81,0-.32,0-.64-.05-1-.93-.9.82-2.69-1.09-3.27h0a20.47,20.47,0,0,1-2.14,1.09l0,0c-.21.43-.74.32-1,.6h0a1,1,0,0,1-.62.48l.05-.06c-.18.49-.72.37-1.05.6l0,0c-.21.41-.74.28-1,.6h0c-.19.18-.34.41-.62.45l.05-.05c-.19.46-.73.35-1,.61l0,0c-.5.41-1.28.41-1.59,1.09l0,0a1.74,1.74,0,0,1-.54.54h0a1.12,1.12,0,0,1-.62.49l0-.06c-.17.46-.72.32-1,.65h0a2.26,2.26,0,0,1-.59.48l0,0c-.21.39-.75.24-1,.61l-.06,0c-.19.16-.38.3-.58.45l0,0a9.42,9.42,0,0,1-1.59,1.07h0a1,1,0,0,1-.62.49l0-.06c-.17.47-.73.34-1,.64h0a1.26,1.26,0,0,1-.61.48l0,0c-.18.44-.73.31-1,.63h0c-.19.18-.34.4-.62.46l.05-.05c-.19.45-.73.32-1,.62h0a1.08,1.08,0,0,1-.63.46l.06-.06c-.3.7-1.14.16-1.52.66h0a3.78,3.78,0,0,1-.54.52v0a1.33,1.33,0,0,1-.59.51l0,0c-.21.41-.74.3-1,.6h0a1.21,1.21,0,0,1-.62.47l.05,0c-.2.46-.73.35-1.05.59h0c-.23.38-.75.26-1,.59h0c-.19.17-.34.39-.61.46l.05,0c-.19.43-.74.29-1,.63l0,0a2.71,2.71,0,0,1-.59.47l0,0c-.2.39-.75.25-1,.62l-.06,0a3.34,3.34,0,0,1-.84.29,5,5,0,0,1-4.05-4.26,149.51,149.51,0,0,1-2.63-18.12c-.22-2.53.32-4.88,2.51-6.54,1.5-2,3.79-2.75,5.84-3.88,6.63-3.68,13.09-7.7,20.28-10.34C296.15,209.9,298.64,210,300.58,208.46Z"/><path class="cls-5" d="M326.43,114.32c-1.76-1-3.76-1.34-5.63-2a64.06,64.06,0,0,1-6.55-2.65,6.07,6.07,0,0,1-1.13-.66.66.66,0,0,1-.21-.92.9.9,0,0,1,.6-.4,4.68,4.68,0,0,1,1.28.16c3.29.85,6.64,1.36,10,1.89,3.69.58,7.36,1.33,11,1.94,2.75.45,5.52.77,8.27,1.2,3.18.49,6.39.72,9.59,1.1,3.79.44,7.55,1.21,11.32,1.85l10.55,1.76c2.48.42,5,.78,7.45,1.3a2.69,2.69,0,0,0,2.23-.31c3.5-2.45,7.39-4.35,10.56-7.24a47.73,47.73,0,0,0,7.25-7.91,67.12,67.12,0,0,0,7.65-13.67c.51-1.29,1.22-2.51,1.75-3.81a60.87,60.87,0,0,0,3.32-12.33c.72-4,1.46-8,2.07-12.08a17.75,17.75,0,0,1,.85-3c.1-.31.34-.69.76-.49a1,1,0,0,1,.38.61,32.79,32.79,0,0,1,.59,6.49,2.15,2.15,0,0,1-.05,2,.28.28,0,0,0-.05.39c-.56,1.22.11,2.58-.43,3.8a2.27,2.27,0,0,0-.09,1.43c-.55,1,.13,2.27-.47,3.31a.33.33,0,0,0-.05.41c-.48.67,0,1.54-.46,2.21a.34.34,0,0,0-.07.41c-.37.5-.06,1.19-.44,1.68a.36.36,0,0,0-.08.42c-.39.5,0,1.2-.47,1.69a.26.26,0,0,0-.08.35c-.18.4-.16.86-.43,1.22a.29.29,0,0,0-.09.37c-.19.38-.15.85-.44,1.21a.22.22,0,0,0-.09.32c-.43.71.11,1.63-.52,2.29l0,0c-.12.22-.16.5-.45.6-.91,1-1.71,2-1.28,3.44a1.6,1.6,0,0,1-.24,1,21.92,21.92,0,0,0-1.54,5,25,25,0,0,1-3.32,8.21,1.31,1.31,0,0,0-.17,1.45,3.41,3.41,0,0,1,.37,1.25c.07,1,.1,1.95-1.14,2.29a1.56,1.56,0,0,0-1,.81,5.75,5.75,0,0,1-2.48,2.26c-1.72,1-3.41,2.15-5.22,3-2.46,1.17-4.6,2.84-7,4.12a.69.69,0,0,0-.12,1.25c.33.28.68.54,1,.81a7.41,7.41,0,0,1,2.49,4.21,4.38,4.38,0,0,1-.91,4.17,12.54,12.54,0,0,1-5.69,4,16.19,16.19,0,0,1-5.11,1,13.88,13.88,0,0,0-1.8.24,7,7,0,0,1-1.55.2c-2.08-.19-4.16-.39-6.22-.71a69.43,69.43,0,0,1-11.95-2.75,8.15,8.15,0,0,0-2.33-.16,21.34,21.34,0,0,1-5.46-.41c-1.25-.35-2.6-.1-3.91-.32a27.92,27.92,0,0,1-6.47-2,30.7,30.7,0,0,1-10.39-6.91,4.25,4.25,0,0,1-1-3.86,1.49,1.49,0,0,1,.75-1,3.69,3.69,0,0,1,1.69-.68A6.15,6.15,0,0,0,337,119c1-.29,2.33-1.45,2.11-1.72-.55-.66-1.38-.65-2.15-.81s-1.45-.64-2.28-.36a2.12,2.12,0,0,1-2-.14h0c-.62-.54-1.52.06-2.13-.52l-.14-.1-.16,0c-.71-.42-1.64.11-2.3-.52l0,0C327.58,114.43,326.8,115,326.43,114.32Z"/><path class="cls-5" d="M248.7,257.7l-.15-.11-.17.05c-.72-.41-1.62.07-2.31-.47l-.14-.11-.18.06c-.71-.41-1.6.05-2.3-.46l-.17-.1-.2,0c-.68-.45-1.59.09-2.24-.5h0l-.57-.45,0,0a2.28,2.28,0,0,0-.49-.49l0,0a1.83,1.83,0,0,0-.48-.48l0,0a2.28,2.28,0,0,0-.49-.49l0,0a1.83,1.83,0,0,0-.48-.48l0,0a2.63,2.63,0,0,0-.47-.53h0c-.69-2.82.18-5.73-.47-8.55a3.79,3.79,0,0,0-.09-2c-.59-1.93.18-4-.44-5.88a6,6,0,0,0-.08-2.52c-.47-3.11-.08-6.23-.22-9.34-.05-.94.23-1.91-.24-2.82a8.13,8.13,0,0,0-.07-3.07c-.59-2.65.18-5.37-.43-8a2.38,2.38,0,0,0-.08-1.42c-.63-1.92.18-3.95-.47-5.86v-1.92c.68-2.45-.19-5,.49-7.44h0a1.86,1.86,0,0,0,.44-.53l.07-.06a1.32,1.32,0,0,0,.48-.46l.05,0a1.85,1.85,0,0,1,.72-.41.26.26,0,0,0,.35-.1,2.25,2.25,0,0,1,2.08,0,.24.24,0,0,0,.34.09c.42.2.9.13,1.33.29,2.51,2.76,6.05,3.53,9.38,4.25,5.73,1.23,7.37,5.24,8,10.2a133.75,133.75,0,0,1,1.49,17.71c-.07,9.18,1.56,18.26,1.24,27.43a28.46,28.46,0,0,0,.29,3.91c.25,2.66-.55,3.47-3.42,3.59-.45,0-.92.08-1.31-.26l-.13-.12-.17.05c-.56-.31-1.28,0-1.78-.49h0c-.61-.54-1.51.07-2.11-.53h0c-.61-.55-1.52.06-2.12-.53l-.14-.1-.17.06C249.93,257.86,249.22,258.15,248.7,257.7Z"/><path class="cls-5" d="M309.6,144.91a3.94,3.94,0,0,1,.89,3.86,43.92,43.92,0,0,0-1.44,8.19c0,.86-1,1.32-.83,2.13a5,5,0,0,1,.28,2.31c-.7,2.18-.33,4.48-.87,6.7A50,50,0,0,0,307,174c-.2,1.72-.37,3.45-.69,5.16a9.14,9.14,0,0,1-1.59,4.08,23.66,23.66,0,0,0-1.74,3.22c-.73,1.38-1.48,2.75-2.23,4.12a3.63,3.63,0,0,1-.32,1.9,16.61,16.61,0,0,1-2.19,3.24c-2.12,2.41-4.14,4.61-5.45,7.88-1.77,4.42-6.24,6.72-11.16,7.67a12.76,12.76,0,0,1-11.69-3.41c-.83-2.3.14-3.83,2.1-5,1.73-1,3.58-1.8,5.31-2.79,3.48-2,3.86-3.63,2.06-7.11a8.62,8.62,0,0,1,.32-8.69,12.9,12.9,0,0,0,1.13-1.09l-.05,0a2,2,0,0,1,.47-.62h0c.33-.25.2-.81.65-1l-.06,0a1.2,1.2,0,0,1,.49-.62v0a4.19,4.19,0,0,0,.4-.54.23.23,0,0,0,.17-.29,1,1,0,0,1,.53-.75l0,0a1.35,1.35,0,0,1,.54-.57l0,0c.26-.32.17-.82.55-1.08l0,0c.14-.2.28-.39.43-.58a.19.19,0,0,0,.13-.28,1,1,0,0,1,.52-.76l0,0c.11-.22.32-.38.45-.59l0-.05c.37-.22.24-.74.59-1l0,0c.15-.18.28-.36.41-.55a.25.25,0,0,0,.16-.31,1.09,1.09,0,0,1,.49-.74h0c.3-.28.17-.84.64-1l-.06.06a1.23,1.23,0,0,1,.47-.63h0c.31-.28.18-.83.64-1l-.06.06a1.31,1.31,0,0,1,.48-.63h0c.31-.28.19-.82.62-1l-.06.06a1.79,1.79,0,0,1,.47-.62v0c.34-.25.22-.78.61-1l0,.05c.1-.24.32-.39.45-.61l0,0c.36-.23.23-.75.58-1l0,0a4.19,4.19,0,0,0,.4-.54.25.25,0,0,0,.17-.31,1,1,0,0,1,.53-.73l0,0a1.7,1.7,0,0,1,.52-.58v0c.28-.31.21-.78.48-1.09v0c.35-.25.22-.78.61-1l0,.05a1.93,1.93,0,0,1,.51-.59h0l.52-.53h0c.17-.18.34-.35.52-.52h0c.48-.43.06-1.15.51-1.59h0c.33-.27.21-.78.57-1l0,0c.12-.22.32-.37.45-.59l0,0a1.3,1.3,0,0,0,.45-.48l.07-.06a1.16,1.16,0,0,0,.46-.47l.06-.06a1.08,1.08,0,0,0,.46-.46l0-.06c.67-.53,0-1.47.59-2v0c.29-.3.18-.82.59-1.05l0,.05c.08-.25.31-.4.44-.62l0,0c.36-.22.23-.75.6-1l0,0c.26-.32.16-.84.59-1.06l-.05,0c.07-.26.3-.41.44-.62l0,0c.35-.24.23-.75.57-1v0c.29-.3.18-.83.6-1.05l-.05.06a2,2,0,0,1,.46-.62v0a1.6,1.6,0,0,0,.45-.52l.07-.06a1.1,1.1,0,0,0,.46-.47l.06-.06a1,1,0,0,0,.46-.46l.07-.06a1.13,1.13,0,0,0,.46-.46l.06-.07a1,1,0,0,0,.46-.46l.07-.07a4.67,4.67,0,0,0,.58-.41l0,0c.17-.18.32-.18.44.06v0c.6.07.83.58,1.13,1l0,0A5.12,5.12,0,0,1,309.6,144.91Z"/><path class="cls-6" d="M388.18,19.86H388l-.17.14c-.33.22-.77.13-1.07.43l-.5.08a13,13,0,0,1-4.7,0l-.24-.11-.26,0c-.3-.3-.79-.2-1.09-.52h0a1.37,1.37,0,0,0-.52-.38.26.26,0,0,0-.33-.21.76.76,0,0,1-.66-.61l.07.06a.65.65,0,0,1-.58-.58l.05.06a.66.66,0,0,1-.58-.58l.06,0a.64.64,0,0,1-.58-.58l.05.06a.67.67,0,0,1-.58-.58l.06.05a.65.65,0,0,1-.58-.58l.05.06a.63.63,0,0,1-.57-.59l.07.06c-.51-.12-.36-.71-.69-1h0a1.31,1.31,0,0,1-.46-.75.19.19,0,0,0-.11-.31c-.26-.35-.21-.8-.44-1.16a1,1,0,0,0-.08-.94,3.47,3.47,0,0,1,0-2.61.79.79,0,0,0,.1-.82c.32-.55,0-1.31.53-1.79l0,0c.23-.34.15-.84.55-1.09l0,0a1.24,1.24,0,0,1,.56-.57l0,0a1.29,1.29,0,0,1,.56-.57l0,0a1.34,1.34,0,0,1,.57-.56l0,0a1.29,1.29,0,0,1,.56-.57l0,0a1.26,1.26,0,0,1,.56-.56l0,0a1.19,1.19,0,0,1,.57-.56l-.05,0c.21-.41.75-.27,1-.63h0a1.5,1.5,0,0,1,.75-.43A.22.22,0,0,0,380,1c.3-.26.76-.15,1-.47h0c.49-.44,1.19-.11,1.7-.48a7.1,7.1,0,0,0,2.39,0c.5.37,1.15.09,1.67.4l.84.16a1.87,1.87,0,0,1,.74.35.37.37,0,0,0,.43.14,4.55,4.55,0,0,1,.64.44l.05,0a1,1,0,0,0,.49.44L390,2a20.88,20.88,0,0,1,2.57,2.58l.06.06a.94.94,0,0,0,.46.46l.06.07a1.73,1.73,0,0,0,.44.53h0a1.55,1.55,0,0,1,.45.72c0,2.31,0,4.61,0,6.92a1.5,1.5,0,0,1-.42.78v0c-.37.22-.23.76-.61,1l0,0a2.8,2.8,0,0,1-.49.59h0a6.5,6.5,0,0,0-.52.53h0a6.5,6.5,0,0,0-.53.52h0a6.5,6.5,0,0,0-.52.53h0a6.5,6.5,0,0,0-.53.52h0a6.5,6.5,0,0,0-.52.53h0a6.5,6.5,0,0,0-.53.52h0c-.19.17-.36.35-.54.52h0A1.59,1.59,0,0,1,388.18,19.86Z"/><path class="cls-7" d="M418.1,220.57c.41.11.84.19,1.25.33,1,.32,1,.47.68,1.26-.52,1.2-1,2.4-1.57,3.6a16,16,0,0,0-1.25,7.14,7.75,7.75,0,0,0,1.14,3.7A14.48,14.48,0,0,0,427,243a13.61,13.61,0,0,0,8.49,0,7.54,7.54,0,0,0,3.56-2.11,3,3,0,0,1,2.83-1,.3.3,0,0,1,.11.35c-.05.11-.09.16-.14.16h0a3.45,3.45,0,0,1-.54.54v0a2.31,2.31,0,0,1-.54.54h0a3.45,3.45,0,0,1-.54.54v0a2.13,2.13,0,0,1-.55.53l0,0a1.64,1.64,0,0,1-.57.54l0,0c-.24.4-.75.3-1.06.58h0c-.27.35-.76.27-1.08.52l0,0c-.45.54-1.19.15-1.69.53l-.2,0-.19.07a21.1,21.1,0,0,1-7.35,0l-.19-.07-.2,0c-.51-.36-1.22,0-1.7-.49h0c-.41-.48-1.18,0-1.56-.58l0,0c-.32-.25-.81-.16-1.07-.54l0,0a2.68,2.68,0,0,1-.57-.49h0c-.27-.32-.79-.2-1-.6l0,0a1.27,1.27,0,0,1-.56-.54l0,0a1.55,1.55,0,0,1-.55-.56l0,0a1.39,1.39,0,0,1-.55-.55l0,0a1.55,1.55,0,0,1-.55-.56l0,0a1.39,1.39,0,0,1-.55-.55l0,0a1.55,1.55,0,0,1-.55-.56l0,0a1.35,1.35,0,0,1-.55-.56l0,0c-.39-.21-.24-.75-.62-1l0-.05a5,5,0,0,0-.45-.56h0c-.33-.26-.22-.76-.55-1h0c-.29-.3-.21-.77-.5-1.08l0,0c-.59-.65,0-1.55-.51-2.22,0-.49-.05-1-.08-1.46a3.42,3.42,0,0,1,0-2.61.6.6,0,0,0,.05-.47c.53-.64,0-1.51.48-2.15a.55.55,0,0,0,.06-.43c.25-.35.19-.83.48-1.16h0c.34-.27.24-.74.51-1v0c.54-.38,0-1.15.59-1.53l0,0A2.28,2.28,0,0,1,418.1,220.57Z"/><path class="cls-5" d="M320.64,167.56a1.17,1.17,0,0,1,1.22.13l2.79,1.9a7.85,7.85,0,0,0,2.19,1.35,2.23,2.23,0,0,1-.4.65,1.44,1.44,0,0,0-.25,2.09,8.67,8.67,0,0,0,.69.79c.6.78.6,1-.14,1.78-.55.56-1.16,1.06-1.74,1.59a2,2,0,0,0-.44,2.55,5.39,5.39,0,0,0,2.15,1.89,1.36,1.36,0,0,0,1.45-.11,23.32,23.32,0,0,1,2.29-1.27c1.12-.52,1.59-.38,2.18.61.31.53.57,1.09.85,1.63s.47.94.71,1.4c.92,1.75,2.13,3,4.32,2.33,1.19,2-.35,3.15-1.55,4.17-1.52,1.29-2.43,2.49-1.74,4.66a2.84,2.84,0,0,1-2,3.74c-1.88,1.4-1.88,1.42-4.19.8-1.07-.29-2.23-.37-3-1.33-.24-.3-.62-.22-1-.11a2.4,2.4,0,0,1-2.55-.84,5.84,5.84,0,0,0-1.95-1.68,2.42,2.42,0,0,1-1.22-1.63,22.29,22.29,0,0,0-2.37-5.76,10.43,10.43,0,0,0-1-1.17,3.07,3.07,0,0,1-.75-4,2.38,2.38,0,0,0,.25-1.71,4.77,4.77,0,0,1,.05-1.55c.3-2.41.69-4.8.9-7.22a3.68,3.68,0,0,1,1.14-2.52C318.6,169.69,319.61,168.62,320.64,167.56Z"/><path class="cls-5" d="M367.78,176.94a2.44,2.44,0,0,1-.43-.28,1.57,1.57,0,0,0-2.31-.17c-.91.67-1.86,1.29-2.79,1.94a1,1,0,0,1-1.39,0,32.82,32.82,0,0,1-4.42-4.89c.54-.69,1.08-1.35,1.6-2a1.89,1.89,0,0,0,0-2.42c-.66-1-1.43-1.77-2.82-1.27a5.76,5.76,0,0,1-1.56,0,2.31,2.31,0,0,1-2.09-.84,3.23,3.23,0,0,0-.56-.55c-1.86-1.26-2.16-3.26-2.5-5.23a1.67,1.67,0,0,1,.93-1.72c2.07-2.27,2.11-2.38,5.08-1.46,3.48,1.07,7.07,1.77,10.47,3.11a2.36,2.36,0,0,0,1.26,0,6.57,6.57,0,0,1,6.19,2.59,2.19,2.19,0,0,1,.58,2.4c-1.09,1.91-.8,4.07-1.38,6.06a4.79,4.79,0,0,1-1.31,2.47A11.25,11.25,0,0,1,367.78,176.94Z"/><path class="cls-8" d="M327.54,133.35a5.17,5.17,0,0,1,5.65,5.25c.06,2.85-3.31,5.54-5.61,5.6s-5.32-2.73-5.26-5.55c0-1.83,1.32-3,2.27-4.27A2.94,2.94,0,0,1,327.54,133.35Z"/><path class="cls-9" d="M333.24,199.44a4.08,4.08,0,0,0,1.18-4.68c-.21-.74-.29-1.52-.44-2.33a12.62,12.62,0,0,0,1.83-1c.62-.46,1.09-1.13,1.7-1.61a2.87,2.87,0,0,0,1-3,6,6,0,0,1,1,0,3.72,3.72,0,0,1,3.39,4.56,2.26,2.26,0,0,1-1.45,2,2.39,2.39,0,0,1-.72.28c-1.87,0-2.85,1.45-4,2.55a2.13,2.13,0,0,0-.35,3.19.75.75,0,0,1-.74.53A4.43,4.43,0,0,1,333.24,199.44Z"/><path class="cls-10" d="M345.33,139.91a3.29,3.29,0,0,1-3.1,3.21c-1.37-.09-2.62-1.71-2.59-3.38a2.85,2.85,0,1,1,5.69.17Z"/><path class="cls-11" d="M317,188.89a5.2,5.2,0,0,1,2.63,4.2,7.64,7.64,0,0,0,1,3.19,8.81,8.81,0,0,1-3.52-.7,1.6,1.6,0,0,1-1.22-1.5A11.54,11.54,0,0,1,317,188.89Z"/><path class="cls-12" d="M300.75,193.74c-.16-.58.07-1.3-.63-1.67.2-.5.4-1,.59-1.49C301.69,191.62,301.26,192.68,300.75,193.74Z"/><path class="cls-13" d="M309.6,144.91a.62.62,0,0,1-.55-.59A.76.76,0,0,1,309.6,144.91Z"/><path class="cls-5" d="M364.76,110.75a35.37,35.37,0,0,1-5.95-1.22c-8.21-2-16.4-4.09-24.59-6.17a36.3,36.3,0,0,1-3.5-1.09,2.21,2.21,0,0,1-1.68-2.6,4.23,4.23,0,0,1,.17-1.29c.45-1.31.45-2.77,1.28-3.95,1.41-.36,2.7.23,4,.49,3.94.73,7.88,1.38,11.81,2.15,2.56.5,5.09,1.18,7.64,1.74q6.87,1.51,13.77,3a4.11,4.11,0,0,1,1.69.63.83.83,0,0,1,.33.65,31.78,31.78,0,0,1-1.29,5.58C367.64,110.71,367.63,110.78,364.76,110.75Z"/><path class="cls-5" d="M330.59,74.1c0-.62,0-1.23,0-1.84a3.42,3.42,0,0,1,.84-2.43A36.32,36.32,0,0,1,335,66a4.82,4.82,0,0,1,4.93-.71,10.66,10.66,0,0,1,7.16,7.4c.93,3.18-.25,5-2.06,6.81a10.83,10.83,0,0,1-3.84,2.23,8.78,8.78,0,0,1-9.75-3.13,4.21,4.21,0,0,1-.84-2.45C330.6,75.49,330.59,74.79,330.59,74.1Z"/><path class="cls-5" d="M363.65,79.77a8.35,8.35,0,0,1,.43-2.57A4.7,4.7,0,0,1,367.57,74a15.73,15.73,0,0,1,2.55-.49,7,7,0,0,1,6.26,2.56,8,8,0,0,1,1.9,4.77A6.28,6.28,0,0,1,376.94,85a10.06,10.06,0,0,1-4.07,3.16,4.73,4.73,0,0,1-4.25-.28,9,9,0,0,1-4.39-4.3A8.64,8.64,0,0,1,363.65,79.77Z"/><path class="cls-8" d="M398.82,91.61a19.47,19.47,0,0,1,1.59-7.9,10.56,10.56,0,0,1,1.13-2.06,1.8,1.8,0,0,1,1.54-.86,3,3,0,0,0,1,0c.56-.2,1.05-.7,1.7-.4a3.77,3.77,0,0,1,1.78,1.85,9.75,9.75,0,0,1,1,3.5,18.36,18.36,0,0,1-.89,8,7.24,7.24,0,0,1-3.06,4.1c-2.21,1.26-3.82.8-5.19-1.63a5.4,5.4,0,0,1-.67-2.51C398.81,93,398.82,92.31,398.82,91.61Z"/><path class="cls-5" d="M367.43,46.71a14,14,0,0,1,6,1.45,3.91,3.91,0,0,1,1.84,2.09,2.87,2.87,0,0,1-1.12,3.89c-1.72,1.31-3.61,2.36-6,2.07a8.62,8.62,0,0,1-3.2-1A5.3,5.3,0,0,1,362.15,49a1.86,1.86,0,0,1,.66-1.09C364.15,46.82,364.65,46.66,367.43,46.71Z"/><path class="cls-14" d="M369,225.59a2.79,2.79,0,0,1,2.55.94.56.56,0,0,1,0,.88.67.67,0,0,1-.92.12A3.59,3.59,0,0,1,369,225.59Z"/><path class="cls-15" d="M374.16,122.25c2.62,0,5.12.81,7.69,1.15a5.79,5.79,0,0,1,1.6.82c.45.22,1.18.14,1.28.72.14.76-.73.83-1.15,1.2a.78.78,0,0,1-1.16-.1c-1.41-1.64-3.51-1.79-5.34-2.53a1.5,1.5,0,0,0-1.26.07c-.85.4-1.28-.14-1.67-.76a.34.34,0,0,1-.12-.38C374.07,122.31,374.12,122.25,374.16,122.25Z"/><path class="cls-16" d="M374.16,122.25c0,.19,0,.38,0,.57a135.22,135.22,0,0,1-14.28-2.88,1.5,1.5,0,0,1,1.36-.25c3.37.83,6.87,1,10.21,1.94C372.34,121.9,373.41,121.4,374.16,122.25Z"/><path class="cls-17" d="M283.71,197.43c-.14.08-.28.24-.39.22-.41-.07-.49-.39-.4-.74,0-.1.25-.25.33-.22A.58.58,0,0,1,283.71,197.43Z"/><path class="cls-18" d="M399.51,96.17a5.52,5.52,0,0,0,1.31,3.09,3.2,3.2,0,0,0,3.79,1,5.59,5.59,0,0,0,3.08-2.7,16.71,16.71,0,0,0,1.07-12.69,4.59,4.59,0,0,0-1.19-2,2.61,2.61,0,0,0-.81-.65,1.39,1.39,0,0,0-2,.65,4.85,4.85,0,0,0,.87.55,3.2,3.2,0,0,1,2,2.56,16.26,16.26,0,0,1-.86,10.25,4.51,4.51,0,0,1-1.8,2.18,2.37,2.37,0,0,1-3.69-1.09,5.9,5.9,0,0,1-.42-1.49,18.91,18.91,0,0,1,.93-9A6.2,6.2,0,0,1,404,83.29a.37.37,0,0,0,0-.64.69.69,0,0,0-.48-.11,2.73,2.73,0,0,0-1.86,1.7A21.22,21.22,0,0,0,399.51,96.17Z"/><path class="cls-19" d="M397.31,71.27a8.85,8.85,0,0,0,2.53-1.76,5,5,0,0,0,.38-.6c-.06-.13-.08-.23-.13-.26s-.34-.17-.47-.13a5.57,5.57,0,0,0-2.69,1.91.41.41,0,0,0-.11.24,1.93,1.93,0,0,0,.08.48C397,71.37,397.11,71.39,397.31,71.27Z"/><path class="cls-19" d="M335.57,59.92c2,.71,3.93,1.46,5.94,2.07a115.34,115.34,0,0,0,16.63,3.58,168.24,168.24,0,0,1,24.71,5.79,110.36,110.36,0,0,0,10.89,2.72c.12,0,.33-.11.41-.23a.64.64,0,0,0,.07-.49,1.33,1.33,0,0,0-1.14-.92,54.23,54.23,0,0,1-5.86-1.4c-4.33-1.35-8.62-2.83-13-4s-8.65-2.15-13-2.86a168.49,168.49,0,0,1-20.75-4.37c-1.5-.45-3.06-.66-4.46-1-.45.13-.94,0-.87.53A.86.86,0,0,0,335.57,59.92Z"/><path class="cls-18" d="M377.91,76.63a4.11,4.11,0,0,0-1.67.7c-1.27.76-2.56,1.49-3.81,2.27a1,1,0,0,1-1.4-.14c-1-1-2-1.94-3-2.89-.63-.59-1.28-1.18-1.94-1.73a.83.83,0,0,0-1,0,1,1,0,0,0-.41.9,4.45,4.45,0,0,0,.89,2.42c.87,1.3,1.75,2.59,2.75,4.07-1.06.79-2,1.45-2.85,2.17a1.63,1.63,0,0,0-.43,2.1,1.53,1.53,0,0,0,1.84.56A29.54,29.54,0,0,0,370,85.71a1.37,1.37,0,0,1,1.85.32c.41.45.85.87,1.29,1.29.9.82,1.81,1.64,2.74,2.42a1,1,0,0,0,1,.24,2.29,2.29,0,0,0,1.49-3.45,8.07,8.07,0,0,0-1-1.17c-.66-.77-2.05-1.21-1.88-2.3s1.63-1.14,2.41-1.81a4,4,0,0,1,.66-.41,4,4,0,0,0,1.27-1.3,1.87,1.87,0,0,0,.15-2A2,2,0,0,0,377.91,76.63Z"/><path class="cls-18" d="M361,111.77c1.69.42,3.4.79,5.11,1.1s2.19,0,2.86-1.57a23.06,23.06,0,0,0,1-3c.24-.83.39-1.7.56-2.55.08-.4.58-.78.22-1.18a3.42,3.42,0,0,0-1.07-.7,4.77,4.77,0,0,0-1-.32c-4.09-.87-8.22-1.6-12.27-2.65-7.95-2.06-16.07-3.27-24.1-4.91-1-.21-1.3-.11-1.57.79a22.59,22.59,0,0,0-1.09,4.88c0,1.48.23,2,1.44,2.39,1.48.52,3,1,4.5,1.39q12.69,3.18,25.39,6.3Zm-29.29-9h0c-.88-.23-1.08-.47-.83-1.26a20,20,0,0,1,1.12-4c1.41-.2,2.7.36,4,.62,3.77.72,7.56,1.4,11.32,2.17,2.22.45,4.41,1,6.62,1.56,4.76,1.11,9.52,2.19,14.28,3.29.64.15.92.51.76,1.13-.34,1.35-.75,2.69-1.12,4-.15.53-.53.63-1.37.55-.23-.05-.83-.18-1.43-.29-6.68-1.3-13.24-3.15-19.87-4.67-4.17-1-8.33-1.94-12.5-2.91C332.36,103,332,102.9,331.68,102.81Z"/><path class="cls-18" d="M331.81,79.34a8.52,8.52,0,0,0,4.11-.53c.86-.36,1.7-1.31,2.62-.87s1.35,1.32,2,2a18,18,0,0,0,3,2.91,2.36,2.36,0,0,0,.93.45c.81.11,2.23-1.42,2.12-2.26a4.29,4.29,0,0,0-1.38-2.42c-3.32-3.49-3.35-2.66,1-5,.54-.29,1.13-.49,1.65-.79a6.78,6.78,0,0,0,1.29-.9,2,2,0,0,0,.19-2.82,1.73,1.73,0,0,0-2.28-.71c-.94.45-1.89.89-2.82,1.37-1.24.63-2.46,1.31-3.71,1.94-1,.51-1.21.46-2-.44-.63-.72-1.21-1.49-1.85-2.2-.82-.91-1.65-1.81-2.52-2.66a3.35,3.35,0,0,0-1.1-.67c-.55-.23-1.35.45-1.16,1a11,11,0,0,0,.85,1.89c1.07,1.89,2.17,3.77,3.25,5.63a10.05,10.05,0,0,1-4.32,2.94,8.63,8.63,0,0,0-.94.41.73.73,0,0,0-.07,1.12A2,2,0,0,0,331.81,79.34Z"/><path class="cls-18" d="M342.93,145a3.52,3.52,0,0,0,3.33-3.4,3.06,3.06,0,0,0-2.83-2.91c-2,0-3.2,1.1-3.23,3a3.24,3.24,0,0,0,2.73,3.32Zm-1-4.25h0c.19-.31.5-.48,1.18-.41a5.92,5.92,0,0,1,.88.46,1.23,1.23,0,0,1-1,2.19A1.58,1.58,0,0,1,341.9,140.77Z"/><path class="cls-18" d="M328.26,146.1a6.07,6.07,0,0,0,5.7-5.77c0-3.29-2.32-5.31-5.85-5.31a3.34,3.34,0,0,0-2.85,1c-1.06,1.35-2.43,2.63-2.34,4.54a5.77,5.77,0,0,0,5.34,5.49Zm-2.6-7.11h0c.34-.09.71-.15.81-.53.27-.93,1-.79,1.69-.81a5.06,5.06,0,0,1,2,.33,2.5,2.5,0,0,1,1.49,3,3.53,3.53,0,0,1-6.83-.28C324.76,140,324.77,139.24,325.66,139Z"/><path class="cls-18" d="M447.33,227c-2.27-5.63-6-9.77-12.09-11.43-.48-.13-1.05-.06-1.45-.49s0-.83.09-1.24a10.45,10.45,0,0,0-.18-5.18c-.36-1.08-.55-2.2-.9-3.28q-3.8-11.58-8.3-22.91c-.81-2-1.66-4-2.36-6.11a259.7,259.7,0,0,0-10-25.34,3.49,3.49,0,0,1-.24-2c.26-1.72.43-3.47.54-5.21a99,99,0,0,1,1.77-14.56,3.18,3.18,0,0,0-2.29-4.07,21.94,21.94,0,0,0-2.55-.59,75.18,75.18,0,0,0-8.85-1c-.38,0-.88.14-1.11-.37.25-.67.88-.84,1.41-1.07,3-1.26,5.78-2.88,8.66-4.36a4.27,4.27,0,0,0,2.45-3.16c.39-2,.88-3.92,1.39-5.86,1.28-4.9,2.63-9.78,3.48-14.79,1.16-6.89,2.51-13.75,3.95-20.59a139,139,0,0,0,2.56-14.18,16.26,16.26,0,0,0-.17-6,2.35,2.35,0,0,0-1.64-1.89c-2.46-.58-4.75-1.73-7.32-2a61.57,61.57,0,0,1-9.05-1.45c-3.06-.75-6.15-1.36-9.26-1.8-2.6-.37-5.2-.68-7.79-1.07-4-.6-7.84-1.79-11.76-2.65-.49-.1-1.06-.1-1.42-.66.07-.29.13-.63.24-1a117,117,0,0,1,5.77-14.9c.15-.32.31-.63.46-.94a1.38,1.38,0,0,1,1.46-.88c.26,0,.52.07.78.09a11,11,0,0,0,9.93-4.8,12.25,12.25,0,0,0,1.8-11.91,9.67,9.67,0,0,0-5.5-6A13.21,13.21,0,0,0,385,.4a9.27,9.27,0,0,0-7.6,3.44,25.7,25.7,0,0,0-1.8,2.57,9.65,9.65,0,0,0-1.42,3.07C373.11,14,374,18,377.32,21.3a1.54,1.54,0,0,1,.36,2.06,89.1,89.1,0,0,0-4.5,10.89c-.69,2-1.39,4-2,6-.23.7-.6,1-1.33.93-.35,0-.7-.07-1-.14-4.3-.82-8.67-1.06-13-1.52a21.68,21.68,0,0,0-5.39.3,43.16,43.16,0,0,0-8.54,2.41c-1.56.56-3.12,1.14-4.72,1.57A107.71,107.71,0,0,0,321.78,49a10.32,10.32,0,0,0-2.26,1.29,2,2,0,0,0-.9,2,10.85,10.85,0,0,1-.34,4.39,156.71,156.71,0,0,0-2.75,16.54c-.66,6-1.14,12-1.71,18-.26,2.7-.45,5.41-.86,8.08-.56,3.71-1.28,7.4-2,11.09a7.67,7.67,0,0,0-.2,2.33,1.55,1.55,0,0,0,1.85,1.34,4,4,0,0,1,2.05,0l14,3.54a10.2,10.2,0,0,1,1.26.37c.33.13.84,0,1,.6a5.66,5.66,0,0,1-.93.5c-3.25,1-6.49,2.09-9.75,3.08a17.66,17.66,0,0,1-4.63.83,2.61,2.61,0,0,0-2.85,2.71,69.21,69.21,0,0,1-1.41,9.05,9.2,9.2,0,0,1-1.38,3.36c-1.29,2-2.6,3.94-3.76,6a4.85,4.85,0,0,1-2.68,2.25c-3.94,1.55-7,4-7.54,8.57a2.22,2.22,0,0,1-1.36,1.77c-1.09.57-2.13,1.22-3.17,1.86a18.65,18.65,0,0,0-4.06,3.29,21,21,0,0,0-1.55,2.1.47.47,0,0,0,.08.45c.09.09.38.13.44.06.49-.5.93-1,1.42-1.55a15,15,0,0,1,7.48-4.08.82.82,0,0,1,.94.25,1.06,1.06,0,0,1,.14,1.22c-.26.45-.54.9-.81,1.34-4.71,7.48-9.49,14.9-14.52,22.16a2.53,2.53,0,0,1-2.11,1.2,17.53,17.53,0,0,0-10.56,4.75,10.5,10.5,0,0,0-3.26,5c-.12.42-.25.83-.37,1.26a1,1,0,0,1-1.18.79,21.14,21.14,0,0,1-3.08-.56c-3.26-1-6.51-2-9.75-3.07a8.25,8.25,0,0,1-2.14-1,2.78,2.78,0,0,0-2.72-.21,84.64,84.64,0,0,1-8.26,2.53,1.56,1.56,0,0,0-1.29,1.46c-.07.52-.1,1-.15,1.56a135.17,135.17,0,0,0-.15,15.72c.1,5.68.43,11.35.66,17,.12,3,.19,5.94.35,8.9.25,4.63.75,9.24.71,13.88a29.83,29.83,0,0,0,.15,3.41A1.55,1.55,0,0,0,240,258a2.45,2.45,0,0,1,2,.2A62.7,62.7,0,0,0,253.63,262c2,.47,3.88,1,5.81,1.58a2.59,2.59,0,0,1,1.44,1c1.07,1.39,1.31,1.44,2.78.45,2.82-1.91,5.6-3.89,8.39-5.85a3.82,3.82,0,0,0,1.42-1.51,5.76,5.76,0,0,1,2.38-2.36c1.53-1,3.08-2,4.64-3a181.06,181.06,0,0,0,21.57-15.32c.26-.22.56-.52.91-.22a1.07,1.07,0,0,1,.3.67c.28,3.05.52,6.1.79,9.14.6,6.71,1.22,13.41,1.79,20.11.1,1.22,0,2.45.08,3.67a2,2,0,0,0,1.66,2.07c.59.16,1.2.24,1.8.35a122.3,122.3,0,0,1,20.87,6,20.63,20.63,0,0,1,2.15.95.81.81,0,0,1,.34,1.12h2.63a9.91,9.91,0,0,1,2.5-1.35c1.14-.65,2.3-1.27,3.44-1.92a3.21,3.21,0,0,0,1.7-1.91,4.44,4.44,0,0,1,1.69-2.24c1.15-1.07,2.31-2.14,3.37-3.29,2.91-3.16,6-6.12,9.12-9.06,4.38-4.15,8.72-8.36,11.91-13.56a4.08,4.08,0,0,1,2-1.6,50.09,50.09,0,0,0,4.95-2.39c4.57-2.57,9.09-5.23,13.64-7.84,2-1.14,3.91-2.32,5.93-3.36a6.57,6.57,0,0,0,3.73-5.61c.2-2.08.45-4.17.75-6.24q1.61-11.16,3.26-22.31c.06-.38-.06-.87.66-1.06.19.33.44.68.62,1.06.9,2,1.85,4,2.68,6,2,4.85,3.95,9.7,5.84,14.59a7.76,7.76,0,0,0,3.72,4.51,5,5,0,0,1,.86.7,20,20,0,0,0-2.24,9.11,13.32,13.32,0,0,0,4.09,10.41c5,4.76,14.94,6.72,21.58,1.83a18.68,18.68,0,0,0,6.57-8.94,12.86,12.86,0,0,0-.41-9.47Zm-14.45,16.39h0a17.29,17.29,0,0,1-8.37-1.72,9.06,9.06,0,0,1-5.17-7.37,19.21,19.21,0,0,1,.78-9,1.27,1.27,0,0,1,1.32-1,9.3,9.3,0,0,0,5.37-1.81,13.43,13.43,0,0,0,1.52-1c1.09-1,2.26-1.64,3.37-1.27a10.77,10.77,0,0,1,9,3.78,15.48,15.48,0,0,1,3.65,6.56,6.33,6.33,0,0,1-.16,4.1c-.07.16-.09.34-.15.5-1.88,5.22-5.46,8.16-11.13,8.29Zm-37.13-18.68h0c-.56,3.77-.54,3.12-3.13,4.58-3.88,2.2-7.72,4.47-11.57,6.72a17.66,17.66,0,0,1-3.52,1.8,6.51,6.51,0,0,1,0-2.68c.12-1.39.24-2.78.33-4.17a.6.6,0,0,0-.22-.4c-.24.06-.61.14-.65.29-.26.93-.45,1.87-.64,2.81-.33,1.53-.63,3.08-1,4.61-.11.51-.22,1-.79,1.28-.24.1-.5.31-.7.26-.47-.1-.31-.52-.26-.83a8.46,8.46,0,0,1,.26-1,11.66,11.66,0,0,0-.86-8.92,10.83,10.83,0,0,0-9-6.35,16.52,16.52,0,0,0-10.58,2.17,59.17,59.17,0,0,0-11.81,8.67c-.34.34-.66.85-1.29.73-.09-.14-.24-.26-.25-.41-.2-1.56-.43-3.12-.55-4.68a80.92,80.92,0,0,1-.11-12.06,11.2,11.2,0,0,0-.89-4.32,2.31,2.31,0,0,0-1.8-1.38c-1.44-.38-2.89-.72-4.32-1.11L316,205.78c-1.18-.32-2.37-.61-3.56-.86s-2.12.69-3.23.9c-2,.37-3.82,1.22-5.84,1.39-.47-.32-.27-.76-.21-1.17.67-4.5,1.35-9,2-13.49.13-.86.2-1.73.25-2.61a9.24,9.24,0,0,1,1.15-4.26c.73-1.24.66-2.68.89-4,1-6,1.65-12,2.23-18a106.37,106.37,0,0,1,2.5-14.73c.25-1.05.42-1.16,1.42-1a15.59,15.59,0,0,1,6.82,3.19,2.18,2.18,0,0,1,.87,2.71c-.63,1.82-1.14,3.67-1.65,5.52a127,127,0,0,0-3.6,19.31c-.58,5-1.57,9.84-2.46,14.74a24.46,24.46,0,0,0-.81,4.9,1.8,1.8,0,0,0,.8,1.55c.38.28.79.5,1.18.21,1-.71,1.68-.37,2.55.27a6.34,6.34,0,0,0,2.23.7c1.35.35,2.73.6,4.06,1a131.71,131.71,0,0,0,17.68,3.75c7.34,1.16,14.68,2.3,21.93,3.93,2.38.53,3.89-.52,4-3a54.89,54.89,0,0,1,.65-5.73q1.06-6.6,2.17-13.19a7.91,7.91,0,0,1,.4-1.52c.16-.4.51-.42.85-.2a7.75,7.75,0,0,1,2.2,2.22A16.64,16.64,0,0,1,376,199.4a.84.84,0,0,1-.87.79,6.34,6.34,0,0,0-4,1.75,4.21,4.21,0,0,0-1,4.38,2.8,2.8,0,0,0,3.64,1.68,5.08,5.08,0,0,0,2.46-1.9c.44-.64.85-1.31,1.42-2.18a13.82,13.82,0,0,1,1.36.48c2.13,1,2.15,1.08,1.81,3.39-.57,3.89-1.22,7.77-1.7,11.67-.31,2.52-.37,5.06-.53,7.59a.53.53,0,0,0,.34.61c.55.15.5-.35.54-.63.54-3.28,1.08-6.55,1.57-9.84.43-2.76.8-5.53,1.2-8.3a1.82,1.82,0,0,1,.58-1.22,6.72,6.72,0,0,1,2.11,2.56c1.76,2.75,3.1,5.68,2.76,9.09,0,.29,0,.52.36.51a.5.5,0,0,0,.36-.29,5.9,5.9,0,0,0,.33-3.09,39.77,39.77,0,0,0-1.52-6.36,12.4,12.4,0,0,0-3.06-5.42,3.15,3.15,0,0,1-1-3.06c.45-3,.86-6.05,1.26-9.09.85-6.5,1.87-13,2.45-19.51.28-3.13.72-6.25,1.09-9.37a1.2,1.2,0,0,1,.14-.5.63.63,0,0,1,.36-.31.46.46,0,0,1,.34.28c1.58,6.27,4.72,11.81,8.09,17.24a14.25,14.25,0,0,1,.88,1.9c.11.24.16.5.26.74a35.61,35.61,0,0,1,2.14,5.62c.4,2-.41,4-.57,6a61.83,61.83,0,0,1-.57,7.05c-.49,2.57-.75,5.19-1.22,7.77-.87,4.82-1.36,9.69-2,14.54,0,.26,0,.52-.07.78Zm-52,43.86h0c-.32-.08-.33-.38-.36-.62-.36-3.46-.71-6.93-1.07-10.4s-.7-6.76-1-10.14c-.11-1.11-.13-2.24-.22-3.89a15.19,15.19,0,0,1,5.56,6.15A49.63,49.63,0,0,1,350,260.61a2.5,2.5,0,0,1-.78,2.58c-1.69,1.64-3.25,3.4-4.86,5.12a.68.68,0,0,1-.67.26Zm7.57-7.94h0c-.39-1.95-.72-3.92-1.21-5.85a34.64,34.64,0,0,0-1.34-3.95,17.12,17.12,0,0,0-6.62-8.23,4.15,4.15,0,0,1-.43-.3c-1.25-.94-1.3-1.54-.24-2.77.29-.34.6-.64.91-.95,1.19-1.16,2.4-2.29,3.57-3.47a4,4,0,0,1,4.78-.93,9.9,9.9,0,0,1,4.3,3.31,22,22,0,0,1,2.51,4.27,45.25,45.25,0,0,1,2.38,6.92,18.66,18.66,0,0,1,.38,2.58,2.09,2.09,0,0,1-.58,1.68,100,100,0,0,1-7.91,7.63c-.1.09-.32,0-.5.06Zm10.8-10.39h0a.41.41,0,0,1-.64-.17,11.11,11.11,0,0,1-.33-1.52,28.38,28.38,0,0,0-1.59-6.6,23.24,23.24,0,0,0-3-5.21,11.65,11.65,0,0,0-5.57-4.18,7.37,7.37,0,0,1-1-.56,27.77,27.77,0,0,1,6.82-3.84,15.19,15.19,0,0,1,8.76-.32c2.88.63,5.72,4.78,4.8,8.28a19.93,19.93,0,0,1-1.16,3.19,49.79,49.79,0,0,1-6.41,10.17,4.05,4.05,0,0,1-.73.76Zm-60.45-16.72h0a37.44,37.44,0,0,0-3.61,2.12c-1.3.8-1.84,1.22-2.13-.85a31.66,31.66,0,0,0-1.17-4.55,15.91,15.91,0,0,0-6.64-8.82c-.5-.33-1-.69-1.46-1a1.36,1.36,0,0,1,.75-.79,76.3,76.3,0,0,1,10-4,23,23,0,0,1,3.08-.61.87.87,0,0,1,1.11.81,9.31,9.31,0,0,1,.18,1.29c.35,4.79.67,9.58,1.05,14.37a1.74,1.74,0,0,1-1.12,2Zm-29.08,17.94h0c-.33-1.89-.62-3.78-.95-5.67-.81-4.74-1.3-9.51-1.69-14.29-.05-.69.32-1,.95-.82a11.18,11.18,0,0,1,6.37,4.33,19.26,19.26,0,0,1,3.51,9.91c0,.51,0,1,0,1.38a1.71,1.71,0,0,1-.82,1.54l-6.38,4.1a.65.65,0,0,1-1-.48Zm-10.11,8.44h0a2.25,2.25,0,0,1-.59-1.68c-.13-3.06-.34-6.11-.39-9.16-.09-6.83-.57-13.62-1-20.43-.34-5.41-.87-10.8-1.29-16.2-.14-1.83-.41-3.65-.67-5.46a5.64,5.64,0,0,0-.48-1.49.85.85,0,0,0-.82-.54c-.45,0-.55.36-.55.72a9.13,9.13,0,0,0,.06,1.57c.58,4,1,8,1.24,12,.48,6.71,1,13.43,1.36,20.14.35,6,.6,12.05.89,18.07,0,.34,0,.68-.08,1.36-2.75-.69-5.27-1.37-7.82-1.95-3.24-.74-6.49-1.41-9.74-2.07a1.15,1.15,0,0,1-1.05-1.25c0-1.31,0-2.63,0-3.94-.3-5.75-.68-11.51-1-17.27-.16-3.23-.09-6.47-.25-9.7-.23-4.45-.33-8.9-.8-13.34-.37-3.39-.51-6.8-.74-10.2a4.61,4.61,0,0,1,0-1.05.55.55,0,0,1,.74-.49c.67.18,1.33.43,2,.66,3.63,1.23,7.26,2.49,10.91,3.7,1.61.53,2.61.39,2.51-.22-.19-1.11-1.22-1.13-2-1.4-2.74-.91-5.49-1.75-8.24-2.62-.25-.08-.49-.19-.73-.28s-.3-.22-.21-.4.16-.34.29-.39c1-.38,2-.74,2.93-1.1a3.48,3.48,0,0,1,2.07,0,118.36,118.36,0,0,1,11.81,3.48c.41.15.81.32,1.2.5a3.83,3.83,0,0,1,2.41,3.66c.23,7.6,1.09,15.16,1.27,22.77A128.15,128.15,0,0,0,267,240.75c.66,4.68,1.34,9.34,2.33,14a1.7,1.7,0,0,1-.71,2c-1.68,1.1-3.32,2.27-5,3.4-.47.32-.82.05-1.15-.25Zm9.08-67.48h0a35.12,35.12,0,0,1,6.89-3.75.48.48,0,0,1,.73.44c0,1,0,1.93,0,2.89a9.72,9.72,0,0,0,2.74,6.88,24.43,24.43,0,0,0,3.94,3.45,9,9,0,0,0,3.8,1.66,7,7,0,0,1,1.09.33,4.82,4.82,0,0,1-2.17,2.6,15.64,15.64,0,0,1-15.5.9c-6.11-2.81-6.32-12-1.51-15.4Zm46.57-64.74h0a8.09,8.09,0,0,1,1.53.29c3.73.95,7.43,2,11.18,2.83,5.12,1.12,10.28,2,15.41,3.09,12,2.49,23.93,5.07,35.77,8.12,1.27.33,2.57.53,3.86.74.31.05.77.05.8-.43a.89.89,0,0,0-.34-.62,7.9,7.9,0,0,0-3.11-1.33c-5.95-1.4-11.89-2.87-17.86-4.17-8.2-1.78-16.38-3.63-24.64-5.08-5.59-1-11.18-2-16.68-3.43l-2.37-.64a2.21,2.21,0,0,1,1.51-.91c3.92-1.24,7.84-2.44,11.74-3.71a17.53,17.53,0,0,0,3.63-1.49,4,4,0,0,1,3.5-.36c.41.14.83.25,1.34.4a5.22,5.22,0,0,1-.3,2.55,15.64,15.64,0,0,0-.37,3.12,2.21,2.21,0,0,0,1.22,2.16,19.08,19.08,0,0,0,3.1,1.39c5.08,1.61,10.19,3.12,15.4,4.25,2.9.63,5.81,1.2,8.72,1.8.43.09.85.21,1.28.28a3.65,3.65,0,0,0,4.37-2.77,12.35,12.35,0,0,0,.55-5c2.09.3,3.92.54,5.08,2.4.46.74.83.76,1.55.27,2.7-1.79,5.6-3.23,8.43-4.79a3.93,3.93,0,0,1,3.24-.36,101.66,101.66,0,0,0,13,3.06c.24,0,.59.09.51.43a1,1,0,0,1-.42.58c-2.07,1.32-4.19,2.54-6.21,3.92a40.69,40.69,0,0,1-5.29,3.4,8.86,8.86,0,0,0-1.66,1.24.63.63,0,0,0-.19.47c0,.13.13.27.23.39s.18,0,.25,0a36.75,36.75,0,0,0,5.6-2.83,50.6,50.6,0,0,1,6.27-3.81,2.67,2.67,0,0,1,1.61-.53c.44,2.12-.33,4.21-.39,6.32a38.68,38.68,0,0,1-.67,6.69c-1.34-.76-2.58-1.38-3.72-2.14a6.08,6.08,0,0,0-5.26-.77,13.7,13.7,0,0,0-8.73,7.39,8.16,8.16,0,0,1-1.43,2.77c.09-1,.18-1.76.22-2.54s.07-1.58.07-2.36,0-1.4-.06-2.09a.78.78,0,0,0-.37-.59c-.51-.15-.52.32-.53.62-.46,7.69-1.56,15.3-2.55,22.93q-1.92,15-3.85,29.9c-.13,1-.35,2.06-.58,3.32-.42-.12-.67-.2-.92-.26-1.68-.44-2.34-1.39-2.21-3.22a19.21,19.21,0,0,0-1.34-7.69,12.26,12.26,0,0,0-4.92-6.59,1.75,1.75,0,0,1-.87-2.18c.55-2.29,1-4.61,1.58-6.89a51.73,51.73,0,0,0,1.31-7.49,4.81,4.81,0,0,1,.69-2.18,2.37,2.37,0,0,0-1.63-3.6,7,7,0,0,0-1.3-.09,38.3,38.3,0,0,1-9-1.49,98.82,98.82,0,0,0-17.42-3.65c-.35,0-.7-.08-1-.13a.71.71,0,0,1-.64-.93c1.46-7.88,8.55-10.54,14.37-8.3a4.2,4.2,0,0,1,.82.55c-.15,1-1,1.24-1.47,1.86a4.06,4.06,0,0,0-.5,4.43,2.16,2.16,0,0,0,3.3.91A4.88,4.88,0,0,0,362.7,151c.05-1.17.36-1.39,1.45-1.17a16.45,16.45,0,0,1,8.83,4.27,3.56,3.56,0,0,0,.56.54c.11.08.35.12.43,0s.21-.36.15-.45a5.23,5.23,0,0,0-.88-1.27c-3.11-2.9-6.43-5.41-10.89-5.75a1.93,1.93,0,0,1-1.39-.63c-2.75-3.2-9.18-3.08-12.9-.61a12.92,12.92,0,0,0-5.59,7.65c-.13.51-.21,1-.34,1.53-.21.77-.5,1-1.32.93-1.82-.22-3.65-.43-5.44-.81-2.22-.47-4.41-1.1-6.61-1.65a12.46,12.46,0,0,0-1.78-.43,7.87,7.87,0,0,1-5.53-3,12.9,12.9,0,0,0-6-3.56l-1.74-.55a.79.79,0,0,1-.57-1c.09-.43.14-.86.23-1.29q1.49-7.32,3-14.64c.24-1.16.62-1.48,1.77-1.43Zm-1.93-16h0c-1.21-.19-1.36-.35-1.18-1.5s.38-2.6.68-3.87a94.43,94.43,0,0,0,1.82-13c.55-6,1.06-12,1.66-18,.27-2.6.66-5.2,1.07-7.79.52-3.37.86-6.76,1.08-10.16,0-.44.08-.87.15-1.3.12-.73.45-.94,1-.55,1.64,1.08,3.57,1.39,5.37,2a1.29,1.29,0,0,0,.75,0,.61.61,0,0,0,.33-.37.59.59,0,0,0-.07-.47,1.9,1.9,0,0,0-.6-.49c-.62-.32-1.26-.59-1.88-.93-1-.56-2.45-.39-3-1.72.77-.91,1.94-1.06,2.94-1.52A46.32,46.32,0,0,1,334,49.5c3.05-.79,6-1.77,9-2.85.66-.24,1.29-.56,2-.75a24.8,24.8,0,0,0,8.27-3.84,1.71,1.71,0,0,1,1.71-.26,114.39,114.39,0,0,0,13.81,4.06.75.75,0,0,1,.64,1,18.19,18.19,0,0,0-.44,5.2c0,.69,0,1.46.9,1.71.68.19,1.34-.22,1.73-1.26.59-1.55,1-3.15,1.57-4.71.28-.82.57-1,1.34-.87,2,.41,3.93.84,5.87,1.33A93.36,93.36,0,0,0,393,50.54a104.28,104.28,0,0,1,12.38,2.23,60.74,60.74,0,0,0,8.26,1.34,14.73,14.73,0,0,1,5.12,1.39,59,59,0,0,1-5.42,4.21c-1.07.77-2.13,1.53-3.15,2.35a11.5,11.5,0,0,0-1.47,1.49c-.38.45-.44,1.36-.14,1.44.51.12.75-.32,1.08-.56.92-.67,1.83-1.36,2.79-2a59.61,59.61,0,0,0,5.78-4.08c.4-.32.86-.57,1.27-.85.59.38.3.8.22,1.17-1.77,9-3.62,18-5.33,27-.92,4.9-1.59,9.84-2.83,14.67-.91,3.55-1.81,7.1-2.79,10.64-.3,1.09-.08,2.47-.9,3.22s-1.93.72-2.87,1.16c-2.38,1.1-4.75,2.21-7.08,3.41-3.33,1.73-6.63,3.54-9.94,5.3a2.59,2.59,0,0,1-1.45.53,3.16,3.16,0,0,1-.07-2.3c.69-4.22,1.31-8.46,2.19-12.65,1.74-8.3,3-16.67,4.09-25.08.21-1.64.55-3.27.79-4.91a8.24,8.24,0,0,0,0-1.57c0-.24-.1-.57-.44-.52a1.16,1.16,0,0,0-.62.38,5,5,0,0,0-.79,2.2c-.24,1.19-.4,2.41-.58,3.62-.89,6.14-1.66,12.3-2.73,18.41-.88,5.07-2.05,10.1-2.81,15.19-.35,2.34-.61,4.68-.93,7-.11.83-.39,1-1.23.85a24.83,24.83,0,0,1-2.54-.64,65.5,65.5,0,0,0-10.17-2.45c-6.31-1-12.46-2.73-18.66-4.18-6.55-1.53-13.09-3.12-19.75-4.15-4.83-.74-9.69-1.29-14.54-1.93-.52-.07-1.05-.1-1.57-.18ZM378.5,7.85h0a2.27,2.27,0,0,1,.66-.79,10.16,10.16,0,0,1,10.42-.66,5.45,5.45,0,0,1,2.51,3.82,8.51,8.51,0,0,1-2,7.06A5,5,0,0,1,387.17,19c-.85.18-1.73.24-2.24.3-3.58,0-5.79-1.29-6.77-4a10.16,10.16,0,0,1,.34-7.41Zm-4.24,119.89h0c-.3,1.18-.53,2.18-.82,3.17a.92.92,0,0,1-1.21.67c-2.9-.61-5.81-1.18-8.72-1.78a157.58,157.58,0,0,1-15.39-4.19c-1.27-.4-1.31-.54-1.31-1.88a11.38,11.38,0,0,1,.08-1.31c0-.15.16-.29.31-.55,3,.43,5.89,1.3,8.85,2s6.1,1.48,9.17,2.14,6,1.16,9,1.74Zm36.41,30.7h0a43.19,43.19,0,0,0-15.84,9,12.89,12.89,0,0,1-2.24-5.52,15.53,15.53,0,0,1,.9-8.5,18.51,18.51,0,0,1,3.37-5.87,3.68,3.68,0,0,1,2.77-1.24,6.58,6.58,0,0,1,5,1.87,23.68,23.68,0,0,1,5.79,8.63,2,2,0,0,1,.27,1.6Zm-49.23,11.81h0c-.9-1.07-1.86-2.09-2.77-3.15a1.94,1.94,0,0,0-2.07-.78l-.26.05c-3.47.26-3.8-.09-3.56-3.76a10.79,10.79,0,0,1,3.27.74c2.62.69,5.22,1.44,7.83,2.12a1.32,1.32,0,0,1,1.15,1.21c.36,2.54,2,3.78,4.47,4.09.33,1.55-.49,2.88-.68,4.53-2.19-.8-2.19-.8-3.94.39l-1.3.89c-1.37.95-1.34,1-2.54-.33-.68-.75-.66-.91,0-1.77.17-.2.36-.38.52-.58,1.16-1.51,1.14-2.15-.15-3.65Zm-5.89,32.86h0a4.61,4.61,0,0,1-1,.09q-6.35-1-12.67-2.11a11.33,11.33,0,0,1-1.52-.4c-.39-.12-.48-.48-.5-.84a.63.63,0,0,1,.53-.75,10.06,10.06,0,0,0,4.16-2.13c2.42-1.94,3-4.22,1.66-7-1.52-3.19-4.75-5-7.6-4.44-1.23.26-1.71-.22-2.17-1.21a14.46,14.46,0,0,0-2.76-4.12,1,1,0,0,0-1.41-.22c-1.13.66-2.27,1.29-3.41,1.94a.64.64,0,0,1-.92-.12.78.78,0,0,1,0-1.15c.7-.78,1.4-1.56,2.05-2.38a1.77,1.77,0,0,0,.13-2.4,2.59,2.59,0,0,1-.47-.92,1.54,1.54,0,0,1,1.38-2.06c1.39-.19,2.78-.35,4.17-.47s1.53.06,1.73,1.31c0,.17,0,.35.05.52.24,1.31.6,1.68,1.85,1.77.95.07,1.92,0,2.88.11a2.67,2.67,0,0,0,2.92-1.72c.14-.31.21-.66.58-.84a19.89,19.89,0,0,1,4.5,1.28c.72.27,1.43.57,2.08.84a4.41,4.41,0,0,1-.8,2.32,2.11,2.11,0,0,0,.53,2.82,13.59,13.59,0,0,1,3.88,5.2c.64,1.45.9,1.49,2.68,1.17.86-.15,1.16,0,1.27.83s.15,1.74.2,2.61a1.06,1.06,0,0,1-.83,1.15,11,11,0,0,0-1.31.83,2.2,2.2,0,0,0-1.11,1.67,15.36,15.36,0,0,1-1.41,4.21c-.81,1.61-.93,3.15.6,4.6Zm-24.3-9.1h0c.22.93.5,1.85.71,2.78a7,7,0,0,1,.16,1.3c0,.82-.29,1.13-1.41,1l-1.44-.37c-1.52-.42-1.46-.42-1.39-2.07.23-5.06-1.69-9.05-6.17-11.54-2.84-1.58-2.29-.91-2-4,.19-2.26.57-4.5.89-6.75a4.47,4.47,0,0,1,.37-1.23,1,1,0,0,1,1.5-.46c1.1.71,2.19,1.44,3.24,2.22,2.91,2.16,3.22,2,.1,4.5-1.33,1.07-1.36,2-.22,3.31.29.32.61.63.92.93a1.91,1.91,0,0,0,2.59.34,28.21,28.21,0,0,1,2.81-1.39.71.71,0,0,1,.92.27,22.91,22.91,0,0,1,3.18,6.56.86.86,0,0,1-.66,1.2c-.75.21-1.53.35-2.29.53-1.66.39-2.15,1.17-1.78,2.85Zm-5.35,1.85h0a5.58,5.58,0,0,1-.19,1,.76.76,0,0,1-.75.6,1.08,1.08,0,0,1-.91-.41,2.46,2.46,0,0,1-.25-.72c-.19-.85-.37-1.7-.55-2.55a7.74,7.74,0,0,0-3.48-5c-1.27-.84-1.25-.87-.86-2.28a2.45,2.45,0,0,1,.2-.48c0-.07.13-.11.19-.17,4.83,1.23,7,6.52,6.6,10Zm43.65-27.13h0c-.76-.44-1.5-.9-2.21-1.4a.85.85,0,0,1-.33-.65c0-.5.47-.39.8-.36.95.09,1.9.21,2.79.3a2.15,2.15,0,0,1-.09,1.61c-.14.55-.54.75-1,.5Zm-9.67-18.26h0a.62.62,0,0,1,.49-.07c.12.07.15.29.23.44-.05,1.1-.46,1.81-1.27,2-.18.05-.61-.17-.63-.31a1.89,1.89,0,0,1,1.18-2.07Zm-52-.65h0c0,.09.11.18.1.25-.52,2.72-1,5.45-1.55,8.17-.21,0-.42,0-.51-.1-.64-.69-1.6-1.32-1.81-2.14-.26-1,.8-1.81,1.29-2.7s1.06-1.8,1.6-2.69c.22-.34.4-.74.88-.79ZM306,162.53h0c-.26,2.58-.47,4.73-.7,6.88a12.42,12.42,0,0,1-.29,1.43c-.7.44-1.08-.08-1.46-.33a17.48,17.48,0,0,1-4.76-4.39c-.65-.9-.62-1.12,0-2.07.44-.65.92-.59,1.56-.31a4.31,4.31,0,0,0,4.44-.5c.27-.19.57-.34,1.19-.71Zm-3-1.45h0a5,5,0,0,1-.71.15c-1.07,0-1.37-.42-1-1.12.08-.15.16-.3.25-.44.53-.82,1.17-.86,1.84-.14s.45,1.31-.34,1.55Zm-.39-11.88h0c.08,0,.18,0,.29.07,0-.19,0-.18.1,0l.05,0h0q-1.45,2.46-2.92,4.92a1.4,1.4,0,0,1-1.26.79c-.37,0-.78-.1-.68-.53a7,7,0,0,1,4.45-5.32Zm-5.27,17.58h0c.83,1,1.53,1.86,2.3,2.69a10.71,10.71,0,0,0,4,2.85c1.23.47,1.24.57,1.08,1.7-.34,2.42-.71,4.83-1,7.25a6.48,6.48,0,0,1-1.24,3.38,7.24,7.24,0,0,0-.77,1.36c-.82,1.62-.92,2-3,1.24a43.65,43.65,0,0,1-6.36-3,10,10,0,0,1-2.47-1.91c-1.78-2-1.71-1.76-.43-3.73,2.28-3.5,4.55-7,6.83-10.53a2.89,2.89,0,0,1,1.1-1.26ZM269.53,224h0c-.13-2.53-.19-5.06-.32-7.6-.09-1.82-.23-3.64-.35-5.43.68-.36,1,.15,1.43.4a18.4,18.4,0,0,0,9.93,2.89,13.7,13.7,0,0,0,5.37-1.08c3.42-1.44,6.62-3.21,8.61-6.54a6.4,6.4,0,0,0,1.11-2.35,5.2,5.2,0,0,1,2-3.43,33.76,33.76,0,0,0,2.78-3.4A50.77,50.77,0,0,1,298.61,209a2.56,2.56,0,0,1-2,2.09,76.31,76.31,0,0,0-18.57,9c-2,1.33-4,2.85-6,4.28a6.56,6.56,0,0,1-2,1.28c-.68-.34-.53-1-.56-1.58Zm17.72-42.22h0a4.59,4.59,0,0,1,.69.58,15.76,15.76,0,0,0,8.89,5.64c.67.18,1.35.36,2,.56,1,.29,1.15.61.69,1.51a37.46,37.46,0,0,1-4.37,7.13,5.65,5.65,0,0,1-7.1,1.25,13.65,13.65,0,0,1-4.19-3.89,5.17,5.17,0,0,1-1-2.94,9.26,9.26,0,0,1,1.36-5.51c.93-1.46,2-2.87,3-4.33Zm-5,64.26h0c-.36-.36-.19-.81-.19-1.22a18.41,18.41,0,0,0-3.35-10.3,12.53,12.53,0,0,0-6-4.88c-.47-.19-1.05-.18-1.39-.73-.12-.56.45-.65.76-.83,3.71-2.12,7.45-4.2,11.16-6.33a2.14,2.14,0,0,1,2.21,0,15,15,0,0,1,6.63,6.5,41.29,41.29,0,0,1,2.73,7.35,2.28,2.28,0,0,1-1,2.9c-3.42,2.27-6.77,4.65-10.15,7a2.21,2.21,0,0,1-1.4.61Zm92-42h0a1.06,1.06,0,0,1-1.15.84c-.14,0-.4-.16-.39-.23A1,1,0,0,1,373,204a.93.93,0,0,1,1.18-.15.74.74,0,0,1,.13.21ZM396.09,170h0c-.62-1-.58-1.22.27-2a29.7,29.7,0,0,1,5.09-3.68,40.59,40.59,0,0,1,8.56-3.9c1.4-.44,1.7-.32,2.21,1,1.75,4.47,3.46,8.95,5.19,13.43.16.4.29.82.44,1.26-.17.22-.27.49-.47.61a17.84,17.84,0,0,1-1.64.81,78.52,78.52,0,0,1-10.88,3.75,18.49,18.49,0,0,0-2,.59c-.7.32-1-.07-1.19-.57A66.56,66.56,0,0,0,396.09,170Zm8.46,12.9h0c4.5-1.08,9-2.23,12.95-4.76.59-.37,1-.22,1.21.41q2.15,5.48,4.25,11c.39,1,.24,1.37-.63,2a8,8,0,0,1-1.11.7,56.16,56.16,0,0,1-8.38,3.67,21.13,21.13,0,0,1-3,.72c-1.17.2-1.36.11-1.88-.92a123.91,123.91,0,0,1-5.33-12.22c.81-.24,1.38-.44,2-.58Zm5.05,16.37h0c-.17-.43-.21-.93.34-1a27.4,27.4,0,0,0,4.8-1.28c1.61-.64,3.23-1.29,4.8-2s2.9-1.56,4.34-2.34a6.85,6.85,0,0,1,1.16,2.62c1.07,2.85,2.07,5.74,3.11,8.6a1.29,1.29,0,0,1-.39,1.63,32.17,32.17,0,0,1-11.08,5.73,9.42,9.42,0,0,1-1.29.23,1.07,1.07,0,0,1-1.26-.68c-.41-1.06-.8-2.12-1.22-3.17-1.1-2.76-2.2-5.5-3.31-8.26ZM415,212.94h0a27.91,27.91,0,0,0,11.78-4.88c.51-.33,1-.74,1.5-1.05.3-.19.71-.25.87.19.37,1.07.75,2.14,1,3.24a4.41,4.41,0,0,1-.11,2.33,9.7,9.7,0,0,1-9.61,6.68,3.82,3.82,0,0,1-3.8-2.65c-.42-1.23-1-2.39-1.65-3.86Zm-85.33,10.89h0a84.13,84.13,0,0,1,1,11.75c.06,1.92.34,3.82.51,5.74l.81,9.14c.08.87.19,1.74.2,2.62.1,5.95.87,11.85,1.42,17.76a23.48,23.48,0,0,1,.2,4.08,2.37,2.37,0,0,1-1.68-.29,128,128,0,0,0-21.32-6.34c-.93-.18-1.12-.44-1.16-1.44-.24-5.86-.94-11.68-1.46-17.51-.43-4.79-.73-9.59-1.28-14.37-.66-5.72-1.51-11.43-2.28-17.15-.1-.78-.23-1.55-.32-2.33a1.17,1.17,0,0,1,.37-1.19c1.17-.91,1.11-2.07.41-3.63a81.53,81.53,0,0,1,12.22,3.93c2,.75,3.89,1.57,5.83,2.36,2.5,1,4,1.14,3.79.52-.45-1.48-1.88-2-3.1-2.53-3.08-1.46-6.31-2.57-9.51-3.74-.81-.3-1.88-.17-2.33-1.19,1-.41,1.88.06,2.77.3,3.71,1,7.4,2.12,11.1,3.15,2.78.77,5.58,1.47,8.36,2.23,1.18.32,1.21.36,1.22,1.62,0,2.37.08,4.73,0,7.09a75.58,75.58,0,0,0,.57,8.37c.44,5.49,1,11,1.52,16.45.65,6.43,1.36,12.86,2.07,19.29a11.23,11.23,0,0,0,.61,3.07c.53,1.3,0,1.93-1,2.56-.81.51-1.51,1.2-2.29,1.75-.34.24-.67.05-.77-.36a9.35,9.35,0,0,1-.2-1.29c-.51-5.31-1.08-10.61-1.5-15.92-.25-3.31-.25-6.64-.65-9.94-.47-4-.85-8-1.27-12q-.44-4.17-.86-8.34a33.84,33.84,0,0,0-1.18-5.37.45.45,0,0,0-.61-.31c-.11,0-.21.27-.22.42A4.51,4.51,0,0,0,329.71,223.83Z"/><path class="cls-20" d="M281.07,144.91a1.56,1.56,0,1,1,0-3.12H293.7a1.56,1.56,0,1,1,0,3.12Z"/><path class="cls-20" d="M274.84,141.79a1.56,1.56,0,1,1,0,3.12h-3.22a1.56,1.56,0,0,1,0-3.12Z"/><path class="cls-20" d="M331.58,31.29a1.56,1.56,0,1,1,0-3.11h30.65a1.56,1.56,0,1,1,0,3.11Z"/><path class="cls-20" d="M325.35,28.18a1.56,1.56,0,1,1,0,3.11h-3.22a1.56,1.56,0,1,1,0-3.11Z"/><path class="cls-20" d="M249.42,150.12a5.6,5.6,0,1,1-4,9.55l-.09-.1a5.6,5.6,0,0,1,.09-7.81l.1-.09a5.59,5.59,0,0,1,3.86-1.55Zm1.75,3.85a2.48,2.48,0,0,0-3.44-.07l-.06.07a2.44,2.44,0,0,0-.73,1.75,2.48,2.48,0,0,0,.66,1.69l.07.06a2.47,2.47,0,0,0,1.75.72,2.51,2.51,0,0,0,1.75-.72h0a2.49,2.49,0,0,0,0-3.5Z"/><path class="cls-20" d="M308.46,33.11a5.57,5.57,0,0,1,3.94,1.64h0a5.59,5.59,0,0,1,0,7.91l-.1.09a5.6,5.6,0,0,1-9.45-4,5.61,5.61,0,0,1,1.64-4h0a5.58,5.58,0,0,1,3.95-1.64ZM310.2,37a2.47,2.47,0,0,0-3.49,0h0A2.49,2.49,0,0,0,306,38.7a2.45,2.45,0,0,0,.73,1.75h0a2.47,2.47,0,0,0,1.75.72,2.44,2.44,0,0,0,1.68-.67l.06-.06a2.45,2.45,0,0,0,.73-1.75,2.49,2.49,0,0,0-.72-1.75Z"/><path class="cls-20" d="M442.19,81.57a5.59,5.59,0,0,1,3.95,9.54l-.1.09a5.55,5.55,0,0,1-3.85,1.55,5.58,5.58,0,0,1-5.59-5.59,5.6,5.6,0,0,1,5.59-5.59Zm1.75,3.83a2.49,2.49,0,0,0-1.75-.72,2.45,2.45,0,0,0-1.75.73h0A2.48,2.48,0,0,0,443.88,89l.06-.06a2.49,2.49,0,0,0,0-3.5Z"/><path class="cls-20" d="M269.47,90.08a1.56,1.56,0,0,1,3.12,0v13a1.56,1.56,0,1,1-3.12,0Z"/><path class="cls-20" d="M277.55,95.05a1.56,1.56,0,1,1,0,3.11h-13a1.56,1.56,0,1,1,0-3.11Z"/><path class="cls-20" d="M408,26.51a1.56,1.56,0,0,1,3.12,0v13a1.56,1.56,0,0,1-3.12,0Z"/><path class="cls-20" d="M416.08,31.48a1.56,1.56,0,1,1,0,3.11H403a1.56,1.56,0,0,1,0-3.11Z"/><path class="cls-20" d="M439.49,127.68a1.56,1.56,0,1,1,2.2,2.2l-9.22,9.22a1.56,1.56,0,0,1-2.2-2.2Z"/><path class="cls-20" d="M441.69,136.9a1.56,1.56,0,1,1-2.2,2.2l-9.22-9.22a1.56,1.56,0,0,1,2.2-2.2Z"/><path class="cls-20" d="M220.51,184.06a1.56,1.56,0,0,1,3.12,0v13a1.56,1.56,0,0,1-3.12,0Z"/><path class="cls-20" d="M228.59,189a1.56,1.56,0,0,1,0,3.12h-13a1.56,1.56,0,0,1,0-3.12Z"/><path class="cls-20" d="M404.64,253.36a1.56,1.56,0,1,1,0,3.12H392a1.56,1.56,0,1,1,0-3.12Z"/><path class="cls-20" d="M410.87,256.48a1.56,1.56,0,1,1,0-3.12h3.21a1.56,1.56,0,1,1,0,3.12Z"/><path class="cls-20" d="M438.73,183.15a5.59,5.59,0,0,1,4,9.54h0a5.58,5.58,0,0,1-7.9,0h0a5.58,5.58,0,0,1,0-7.9l.1-.09a5.55,5.55,0,0,1,3.85-1.55Zm1.75,3.84a2.49,2.49,0,0,0-3.44-.06L437,187a2.46,2.46,0,0,0-.72,1.74,2.43,2.43,0,0,0,.72,1.75h0a2.49,2.49,0,0,0,3.5,0h0a2.47,2.47,0,0,0,.72-1.75,2.43,2.43,0,0,0-.73-1.74Z"/></g></g></svg>