<?xml version="1.0" encoding="UTF-8"?>
<svg width="22px" height="22px" viewBox="0 0 22 22" version="1.1" xmlns="http://www.w3.org/2000/svg" xmlns:xlink="http://www.w3.org/1999/xlink">
    <!-- Generator: Sketch 61 (89581) - https://sketch.com -->
    <title>instagram-logo</title>
    <desc>Created with Sketch.</desc>
    <g id="Page-1" stroke="none" stroke-width="1" fill="none" fill-rule="evenodd">
        <g id="Main" transform="translate(-1349.000000, -482.000000)" fill="#FFFFFF" fill-rule="nonzero">
            <g id="instagram-logo" transform="translate(1349.000000, 482.000000)">
                <path d="M15.8407765,0 L6.03757647,0 C2.70845882,0 0,2.70858824 0,6.03770588 L0,15.8409059 C0,19.1701529 2.70845882,21.8786118 6.03757647,21.8786118 L15.8407765,21.8786118 C19.1701529,21.8786118 21.8786118,19.1700235 21.8786118,15.8409059 L21.8786118,6.03770588 C21.8786118,2.70858824 19.1701529,0 15.8407765,0 Z M19.9375647,15.8409059 C19.9375647,18.0997882 18.0997882,19.9374353 15.8409059,19.9374353 L6.03757647,19.9374353 C3.77882353,19.9374353 1.94117647,18.0997882 1.94117647,15.8409059 L1.94117647,6.03770588 C1.94117647,3.77895294 3.77882353,1.94117647 6.03757647,1.94117647 L15.8407765,1.94117647 C18.0996588,1.94117647 19.9375647,3.77895294 19.9375647,6.03770588 L19.9375647,15.8409059 L19.9375647,15.8409059 Z" id="Shape"></path>
                <path d="M10.9393059,5.302 C7.83070588,5.302 5.30174118,7.83096471 5.30174118,10.9395647 C5.30174118,14.0480353 7.83070588,16.5768706 10.9393059,16.5768706 C14.0479059,16.5768706 16.5768706,14.0480353 16.5768706,10.9395647 C16.5768706,7.83096471 14.0479059,5.302 10.9393059,5.302 Z M10.9393059,14.6355647 C8.9012,14.6355647 7.24291765,12.9775412 7.24291765,10.9394353 C7.24291765,8.9012 8.90107059,7.24304706 10.9393059,7.24304706 C12.9775412,7.24304706 14.6356941,8.9012 14.6356941,10.9394353 C14.6356941,12.9775412 12.9774118,14.6355647 10.9393059,14.6355647 Z" id="Shape"></path>
                <path d="M16.8133059,3.65601176 C16.4393059,3.65601176 16.0719059,3.80742353 15.8077765,4.07271765 C15.5423529,4.33671765 15.3897765,4.70424706 15.3897765,5.07954118 C15.3897765,5.45367059 15.5424824,5.82107059 15.8077765,6.08636471 C16.0717765,6.35036471 16.4393059,6.50307059 16.8133059,6.50307059 C17.1886,6.50307059 17.5548353,6.35036471 17.8201294,6.08636471 C18.0854235,5.82107059 18.2368353,5.45354118 18.2368353,5.07954118 C18.2368353,4.70424706 18.0854235,4.33671765 17.8201294,4.07271765 C17.5561294,3.80742353 17.1886,3.65601176 16.8133059,3.65601176 Z" id="Path"></path>
            </g>
        </g>
    </g>
</svg>