<?xml version="1.0" encoding="UTF-8"?>
<svg width="24px" height="21px" viewBox="0 0 24 21" version="1.1" xmlns="http://www.w3.org/2000/svg" xmlns:xlink="http://www.w3.org/1999/xlink">
    <!-- Generator: Sketch 61 (89581) - https://sketch.com -->
    <title>Shape</title>
    <desc>Created with Sketch.</desc>
    <g id="Page-1" stroke="none" stroke-width="1" fill="none" fill-rule="evenodd">
        <g id="Main" transform="translate(-1348.000000, -397.000000)" fill="#FFFFFF" fill-rule="nonzero">
            <g id="telegram" transform="translate(1348.000000, 397.000000)">
                <path d="M0.414191033,10.1917193 L6.27175049,13.1110175 C6.49830799,13.2227992 6.76578558,13.2148148 6.98236257,13.0880624 L12.1961793,10.0569825 L9.04034308,12.8535205 C8.87965692,12.9962417 8.78783626,13.1998441 8.78783626,13.414425 L8.78783626,20.2261209 C8.78783626,20.9447173 9.70504483,21.2471267 10.1352047,20.6762417 L12.6672593,17.3098168 L18.9290292,20.8758519 C19.3681715,21.1283587 19.9310721,20.8748538 20.0328733,20.3728343 L23.9382456,0.910846004 C24.0550175,0.325988304 23.473154,-0.151079922 22.9322105,0.0664951267 L0.476070175,8.82438986 C-0.126752437,9.05992982 -0.165676413,9.90328265 0.414191033,10.1917193 Z M22.2016374,1.95879922 L18.7693411,19.0623938 L12.8359298,15.6829942 C12.5125614,15.4983548 12.0963743,15.5801949 11.8668226,15.8836023 L10.2849123,17.9864951 L10.2849123,13.750768 L18.8192437,6.18953606 C19.494924,5.5917037 18.7184405,4.52877973 17.9469474,4.98189474 L6.5791501,11.5909864 L2.59493177,9.60586355 L22.2016374,1.95879922 Z" id="Shape"></path>
            </g>
        </g>
    </g>
</svg>