<?xml version="1.0" encoding="UTF-8"?>
<svg width="24px" height="15px" viewBox="0 0 24 15" version="1.1" xmlns="http://www.w3.org/2000/svg" xmlns:xlink="http://www.w3.org/1999/xlink">
    <!-- Generator: Sketch 61 (89581) - https://sketch.com -->
    <title>vk</title>
    <desc>Created with Sketch.</desc>
    <g id="Page-1" stroke="none" stroke-width="1" fill="none" fill-rule="evenodd">
        <g id="Main" transform="translate(-1348.000000, -442.000000)" fill="#FFFFFF" fill-rule="nonzero">
            <g id="vk" transform="translate(1348.000000, 442.000000)">
                <path d="M12.1213255,15.0019493 C15.5865575,15.0019493 14.3509708,12.8082339 14.6184483,12.1774659 C14.6144561,11.706386 14.6104639,11.253271 14.6264327,10.977809 C14.8460039,11.0396881 15.3639922,11.3021754 16.4339025,12.3421442 C18.0856764,14.0088889 18.5078519,15.0019493 19.8422456,15.0019493 L22.2984483,15.0019493 C23.0769279,15.0019493 23.4821365,14.6795789 23.6847407,14.4091072 C23.8803587,14.1476179 24.0719844,13.6885146 23.8623938,12.9739103 C23.3144639,11.253271 20.1187057,8.28207407 19.9200936,7.96868616 C19.9500351,7.91079922 19.9979415,7.83394932 20.0228928,7.79402729 L20.0208967,7.79402729 C20.6516647,6.96065497 23.058963,3.35369981 23.413271,1.91051852 C23.414269,1.90852242 23.4152671,1.90552827 23.4152671,1.90253411 C23.6068928,1.24382066 23.4312359,0.816654971 23.2495906,0.575126706 C22.9761248,0.213832359 22.5409747,0.0311890838 21.9531228,0.0311890838 L19.4969201,0.0311890838 C18.6745263,0.0311890838 18.0507446,0.445380117 17.7353606,1.20090448 C17.2073918,2.54328265 15.7242885,5.30389084 14.61246,6.28098246 C14.5785263,4.89668616 14.6014815,3.83975049 14.6194464,3.0542846 C14.6553762,1.5222768 14.7711501,0.0311890838 13.1812554,0.0311890838 L9.32079532,0.0311890838 C8.32474074,0.0311890838 7.37160234,1.11906433 8.40358674,2.41054191 C9.30582456,3.54233138 8.72795322,4.17309942 8.9225731,7.31296686 C8.16405458,6.49955556 6.81469006,4.302846 5.86055361,1.49532943 C5.59307602,0.735812865 5.18786745,0.0321871345 4.04709552,0.0321871345 L1.59089279,0.0321871345 C0.594838207,0.0321871345 -1.77635684e-15,0.575126706 -1.77635684e-15,1.48435088 C-1.77635684e-15,3.52636257 4.52017154,15.0019493 12.1213255,15.0019493 Z M4.04709552,1.52926316 C4.26367251,1.52926316 4.28562963,1.52926316 4.44631579,1.98537232 C5.42340741,4.86275244 7.61512671,9.12043665 9.216,9.12043665 C10.4186511,9.12043665 10.4186511,7.88784405 10.4186511,7.42375049 L10.417653,3.72896686 C10.3517817,2.50635478 9.90665107,1.89754386 9.61422222,1.52826511 L13.115384,1.53225731 C13.1173801,1.54922417 13.095423,5.61927485 13.1253645,6.60534893 C13.1253645,8.00561404 14.237193,8.80804678 15.9728031,7.05147758 C17.8042261,4.98451462 19.0707524,1.89454971 19.121653,1.76879532 C19.1965068,1.5891462 19.2613801,1.52826511 19.4969201,1.52826511 L21.9531228,1.52826511 L21.9631033,1.52826511 C21.9621053,1.53125926 21.9621053,1.53425341 21.9611072,1.53724756 C21.7365458,2.58520078 19.5198752,5.92467836 18.7783236,6.96165302 C18.766347,6.97762183 18.7553684,6.99458869 18.7443899,7.01155556 C18.4180273,7.54451462 18.1525458,8.13336452 18.7893021,8.96174659 L18.7903002,8.96174659 C18.8481871,9.03161014 18.9988928,9.19529045 19.2184639,9.422846 C19.9011306,10.1274698 22.2425575,12.5367641 22.450152,13.4948928 C22.3124211,13.5168499 22.1627135,13.5008811 19.8422456,13.5058713 C19.3482105,13.5058713 18.9619649,12.7673138 17.4878441,11.2802183 C16.1624327,9.99073684 15.3021131,9.46376608 14.5186433,9.46376608 C12.997614,9.46376608 13.1083977,10.6983548 13.1223704,12.1914386 C13.1273606,13.8102768 13.1173801,13.2982768 13.1283587,13.400078 C13.0395322,13.4350097 12.7850292,13.5048733 12.1213255,13.5048733 C5.78869396,13.5048733 1.66474854,3.45350487 1.50605848,1.53225731 C1.56095127,1.52726706 2.31647563,1.53026121 4.04709552,1.52926316 L4.04709552,1.52926316 Z" id="Shape"></path>
            </g>
        </g>
    </g>
</svg>